<?xml version="1.0" encoding="utf-8" standalone="no"?>
<!DOCTYPE svg PUBLIC "-//W3C//DTD SVG 1.1//EN"
  "http://www.w3.org/Graphics/SVG/1.1/DTD/svg11.dtd">
<svg xmlns:xlink="http://www.w3.org/1999/xlink" width="441.814219pt" height="326.048437pt" viewBox="0 0 441.814219 326.048437" xmlns="http://www.w3.org/2000/svg" version="1.1">
 <metadata>
  <rdf:RDF xmlns:dc="http://purl.org/dc/elements/1.1/" xmlns:cc="http://creativecommons.org/ns#" xmlns:rdf="http://www.w3.org/1999/02/22-rdf-syntax-ns#">
   <cc:Work>
    <dc:type rdf:resource="http://purl.org/dc/dcmitype/StillImage"/>
    <dc:date>2025-05-19T21:19:43.876156</dc:date>
    <dc:format>image/svg+xml</dc:format>
    <dc:creator>
     <cc:Agent>
      <dc:title>Matplotlib v3.8.2, https://matplotlib.org/</dc:title>
     </cc:Agent>
    </dc:creator>
   </cc:Work>
  </rdf:RDF>
 </metadata>
 <defs>
  <style type="text/css">*{stroke-linejoin: round; stroke-linecap: butt}</style>
 </defs>
 <g id="figure_1">
  <g id="patch_1">
   <path d="M 0 326.048437 
L 441.814219 326.048437 
L 441.814219 0 
L 0 0 
z
" style="fill: #ffffff"/>
  </g>
  <g id="axes_1">
   <g id="patch_2">
    <path d="M 54.574219 284.1 
L 434.614219 284.1 
L 434.614219 7.2 
L 54.574219 7.2 
z
" style="fill: #ffffff"/>
   </g>
   <g id="matplotlib.axis_1">
    <g id="xtick_1">
     <g id="line2d_1">
      <path d="M 70.770687 284.1 
L 70.770687 7.2 
" clip-path="url(#p80fb911516)" style="fill: none; stroke: #cccccc; stroke-width: 0.8; stroke-linecap: round"/>
     </g>
     <g id="line2d_2"/>
     <g id="text_1">
      <!-- 0 -->
      <g style="fill: #262626" transform="translate(67.020687 298.015625) scale(0.15 -0.15)">
       <defs>
        <path id="TimesNewRomanPSMT-30" d="M 231 2094 
Q 231 2819 450 3342 
Q 669 3866 1031 4122 
Q 1313 4325 1613 4325 
Q 2100 4325 2488 3828 
Q 2972 3213 2972 2159 
Q 2972 1422 2759 906 
Q 2547 391 2217 158 
Q 1888 -75 1581 -75 
Q 975 -75 572 641 
Q 231 1244 231 2094 
z
M 844 2016 
Q 844 1141 1059 588 
Q 1238 122 1591 122 
Q 1759 122 1940 273 
Q 2122 425 2216 781 
Q 2359 1319 2359 2297 
Q 2359 3022 2209 3506 
Q 2097 3866 1919 4016 
Q 1791 4119 1609 4119 
Q 1397 4119 1231 3928 
Q 1006 3669 925 3112 
Q 844 2556 844 2016 
z
" transform="scale(0.015625)"/>
       </defs>
       <use xlink:href="#TimesNewRomanPSMT-30"/>
      </g>
     </g>
    </g>
    <g id="xtick_2">
     <g id="line2d_3">
      <path d="M 140.10043 284.1 
L 140.10043 7.2 
" clip-path="url(#p80fb911516)" style="fill: none; stroke: #cccccc; stroke-width: 0.8; stroke-linecap: round"/>
     </g>
     <g id="line2d_4"/>
     <g id="text_2">
      <!-- 20 -->
      <g style="fill: #262626" transform="translate(132.60043 298.015625) scale(0.15 -0.15)">
       <defs>
        <path id="TimesNewRomanPSMT-32" d="M 2934 816 
L 2638 0 
L 138 0 
L 138 116 
Q 1241 1122 1691 1759 
Q 2141 2397 2141 2925 
Q 2141 3328 1894 3587 
Q 1647 3847 1303 3847 
Q 991 3847 742 3664 
Q 494 3481 375 3128 
L 259 3128 
Q 338 3706 661 4015 
Q 984 4325 1469 4325 
Q 1984 4325 2329 3994 
Q 2675 3663 2675 3213 
Q 2675 2891 2525 2569 
Q 2294 2063 1775 1497 
Q 997 647 803 472 
L 1909 472 
Q 2247 472 2383 497 
Q 2519 522 2628 598 
Q 2738 675 2819 816 
L 2934 816 
z
" transform="scale(0.015625)"/>
       </defs>
       <use xlink:href="#TimesNewRomanPSMT-32"/>
       <use xlink:href="#TimesNewRomanPSMT-30" x="50"/>
      </g>
     </g>
    </g>
    <g id="xtick_3">
     <g id="line2d_5">
      <path d="M 209.430173 284.1 
L 209.430173 7.2 
" clip-path="url(#p80fb911516)" style="fill: none; stroke: #cccccc; stroke-width: 0.8; stroke-linecap: round"/>
     </g>
     <g id="line2d_6"/>
     <g id="text_3">
      <!-- 40 -->
      <g style="fill: #262626" transform="translate(201.930173 298.015625) scale(0.15 -0.15)">
       <defs>
        <path id="TimesNewRomanPSMT-34" d="M 2978 1563 
L 2978 1119 
L 2409 1119 
L 2409 0 
L 1894 0 
L 1894 1119 
L 100 1119 
L 100 1519 
L 2066 4325 
L 2409 4325 
L 2409 1563 
L 2978 1563 
z
M 1894 1563 
L 1894 3666 
L 406 1563 
L 1894 1563 
z
" transform="scale(0.015625)"/>
       </defs>
       <use xlink:href="#TimesNewRomanPSMT-34"/>
       <use xlink:href="#TimesNewRomanPSMT-30" x="50"/>
      </g>
     </g>
    </g>
    <g id="xtick_4">
     <g id="line2d_7">
      <path d="M 278.759916 284.1 
L 278.759916 7.2 
" clip-path="url(#p80fb911516)" style="fill: none; stroke: #cccccc; stroke-width: 0.8; stroke-linecap: round"/>
     </g>
     <g id="line2d_8"/>
     <g id="text_4">
      <!-- 60 -->
      <g style="fill: #262626" transform="translate(271.259916 298.015625) scale(0.15 -0.15)">
       <defs>
        <path id="TimesNewRomanPSMT-36" d="M 2869 4325 
L 2869 4209 
Q 2456 4169 2195 4045 
Q 1934 3922 1679 3669 
Q 1425 3416 1258 3105 
Q 1091 2794 978 2366 
Q 1428 2675 1881 2675 
Q 2316 2675 2634 2325 
Q 2953 1975 2953 1425 
Q 2953 894 2631 456 
Q 2244 -75 1606 -75 
Q 1172 -75 869 213 
Q 275 772 275 1663 
Q 275 2231 503 2743 
Q 731 3256 1154 3653 
Q 1578 4050 1965 4187 
Q 2353 4325 2688 4325 
L 2869 4325 
z
M 925 2138 
Q 869 1716 869 1456 
Q 869 1156 980 804 
Q 1091 453 1309 247 
Q 1469 100 1697 100 
Q 1969 100 2183 356 
Q 2397 613 2397 1088 
Q 2397 1622 2184 2012 
Q 1972 2403 1581 2403 
Q 1463 2403 1327 2353 
Q 1191 2303 925 2138 
z
" transform="scale(0.015625)"/>
       </defs>
       <use xlink:href="#TimesNewRomanPSMT-36"/>
       <use xlink:href="#TimesNewRomanPSMT-30" x="50"/>
      </g>
     </g>
    </g>
    <g id="xtick_5">
     <g id="line2d_9">
      <path d="M 348.089659 284.1 
L 348.089659 7.2 
" clip-path="url(#p80fb911516)" style="fill: none; stroke: #cccccc; stroke-width: 0.8; stroke-linecap: round"/>
     </g>
     <g id="line2d_10"/>
     <g id="text_5">
      <!-- 80 -->
      <g style="fill: #262626" transform="translate(340.589659 298.015625) scale(0.15 -0.15)">
       <defs>
        <path id="TimesNewRomanPSMT-38" d="M 1228 2134 
Q 725 2547 579 2797 
Q 434 3047 434 3316 
Q 434 3728 753 4026 
Q 1072 4325 1600 4325 
Q 2113 4325 2425 4047 
Q 2738 3769 2738 3413 
Q 2738 3175 2569 2928 
Q 2400 2681 1866 2347 
Q 2416 1922 2594 1678 
Q 2831 1359 2831 1006 
Q 2831 559 2490 242 
Q 2150 -75 1597 -75 
Q 994 -75 656 303 
Q 388 606 388 966 
Q 388 1247 577 1523 
Q 766 1800 1228 2134 
z
M 1719 2469 
Q 2094 2806 2194 3001 
Q 2294 3197 2294 3444 
Q 2294 3772 2109 3958 
Q 1925 4144 1606 4144 
Q 1288 4144 1088 3959 
Q 888 3775 888 3528 
Q 888 3366 970 3203 
Q 1053 3041 1206 2894 
L 1719 2469 
z
M 1375 2016 
Q 1116 1797 991 1539 
Q 866 1281 866 981 
Q 866 578 1086 336 
Q 1306 94 1647 94 
Q 1984 94 2187 284 
Q 2391 475 2391 747 
Q 2391 972 2272 1150 
Q 2050 1481 1375 2016 
z
" transform="scale(0.015625)"/>
       </defs>
       <use xlink:href="#TimesNewRomanPSMT-38"/>
       <use xlink:href="#TimesNewRomanPSMT-30" x="50"/>
      </g>
     </g>
    </g>
    <g id="xtick_6">
     <g id="line2d_11">
      <path d="M 417.419403 284.1 
L 417.419403 7.2 
" clip-path="url(#p80fb911516)" style="fill: none; stroke: #cccccc; stroke-width: 0.8; stroke-linecap: round"/>
     </g>
     <g id="line2d_12"/>
     <g id="text_6">
      <!-- 100 -->
      <g style="fill: #262626" transform="translate(406.169403 298.015625) scale(0.15 -0.15)">
       <defs>
        <path id="TimesNewRomanPSMT-31" d="M 750 3822 
L 1781 4325 
L 1884 4325 
L 1884 747 
Q 1884 391 1914 303 
Q 1944 216 2037 169 
Q 2131 122 2419 116 
L 2419 0 
L 825 0 
L 825 116 
Q 1125 122 1212 167 
Q 1300 213 1334 289 
Q 1369 366 1369 747 
L 1369 3034 
Q 1369 3497 1338 3628 
Q 1316 3728 1258 3775 
Q 1200 3822 1119 3822 
Q 1003 3822 797 3725 
L 750 3822 
z
" transform="scale(0.015625)"/>
       </defs>
       <use xlink:href="#TimesNewRomanPSMT-31"/>
       <use xlink:href="#TimesNewRomanPSMT-30" x="50"/>
       <use xlink:href="#TimesNewRomanPSMT-30" x="100"/>
      </g>
     </g>
    </g>
    <g id="text_7">
     <!-- epochs -->
     <g style="fill: #262626" transform="translate(223.766484 315.639844) scale(0.15 -0.15)">
      <defs>
       <path id="TimesNewRomanPSMT-65" d="M 681 1784 
Q 678 1147 991 784 
Q 1303 422 1725 422 
Q 2006 422 2214 576 
Q 2422 731 2563 1106 
L 2659 1044 
Q 2594 616 2278 264 
Q 1963 -88 1488 -88 
Q 972 -88 605 314 
Q 238 716 238 1394 
Q 238 2128 614 2539 
Q 991 2950 1559 2950 
Q 2041 2950 2350 2633 
Q 2659 2316 2659 1784 
L 681 1784 
z
M 681 1966 
L 2006 1966 
Q 1991 2241 1941 2353 
Q 1863 2528 1708 2628 
Q 1553 2728 1384 2728 
Q 1125 2728 920 2526 
Q 716 2325 681 1966 
z
" transform="scale(0.015625)"/>
       <path id="TimesNewRomanPSMT-70" d="M -6 2578 
L 875 2934 
L 994 2934 
L 994 2266 
Q 1216 2644 1439 2795 
Q 1663 2947 1909 2947 
Q 2341 2947 2628 2609 
Q 2981 2197 2981 1534 
Q 2981 794 2556 309 
Q 2206 -88 1675 -88 
Q 1444 -88 1275 -22 
Q 1150 25 994 166 
L 994 -706 
Q 994 -1000 1030 -1079 
Q 1066 -1159 1155 -1206 
Q 1244 -1253 1478 -1253 
L 1478 -1369 
L -22 -1369 
L -22 -1253 
L 56 -1253 
Q 228 -1256 350 -1188 
Q 409 -1153 442 -1076 
Q 475 -1000 475 -688 
L 475 2019 
Q 475 2297 450 2372 
Q 425 2447 370 2484 
Q 316 2522 222 2522 
Q 147 2522 31 2478 
L -6 2578 
z
M 994 2081 
L 994 1013 
Q 994 666 1022 556 
Q 1066 375 1236 237 
Q 1406 100 1666 100 
Q 1978 100 2172 344 
Q 2425 663 2425 1241 
Q 2425 1897 2138 2250 
Q 1938 2494 1663 2494 
Q 1513 2494 1366 2419 
Q 1253 2363 994 2081 
z
" transform="scale(0.015625)"/>
       <path id="TimesNewRomanPSMT-6f" d="M 1600 2947 
Q 2250 2947 2644 2453 
Q 2978 2031 2978 1484 
Q 2978 1100 2793 706 
Q 2609 313 2286 112 
Q 1963 -88 1566 -88 
Q 919 -88 538 428 
Q 216 863 216 1403 
Q 216 1797 411 2186 
Q 606 2575 925 2761 
Q 1244 2947 1600 2947 
z
M 1503 2744 
Q 1338 2744 1170 2645 
Q 1003 2547 900 2300 
Q 797 2053 797 1666 
Q 797 1041 1045 587 
Q 1294 134 1700 134 
Q 2003 134 2200 384 
Q 2397 634 2397 1244 
Q 2397 2006 2069 2444 
Q 1847 2744 1503 2744 
z
" transform="scale(0.015625)"/>
       <path id="TimesNewRomanPSMT-63" d="M 2631 1088 
Q 2516 522 2178 217 
Q 1841 -88 1431 -88 
Q 944 -88 581 321 
Q 219 731 219 1428 
Q 219 2103 620 2525 
Q 1022 2947 1584 2947 
Q 2006 2947 2278 2723 
Q 2550 2500 2550 2259 
Q 2550 2141 2473 2067 
Q 2397 1994 2259 1994 
Q 2075 1994 1981 2113 
Q 1928 2178 1911 2362 
Q 1894 2547 1784 2644 
Q 1675 2738 1481 2738 
Q 1169 2738 978 2506 
Q 725 2200 725 1697 
Q 725 1184 976 792 
Q 1228 400 1656 400 
Q 1963 400 2206 609 
Q 2378 753 2541 1131 
L 2631 1088 
z
" transform="scale(0.015625)"/>
       <path id="TimesNewRomanPSMT-68" d="M 1041 4444 
L 1041 2350 
Q 1388 2731 1591 2839 
Q 1794 2947 1997 2947 
Q 2241 2947 2416 2812 
Q 2591 2678 2675 2391 
Q 2734 2191 2734 1659 
L 2734 647 
Q 2734 375 2778 275 
Q 2809 200 2884 156 
Q 2959 113 3159 113 
L 3159 0 
L 1753 0 
L 1753 113 
L 1819 113 
Q 2019 113 2097 173 
Q 2175 234 2206 353 
Q 2216 403 2216 647 
L 2216 1659 
Q 2216 2128 2167 2275 
Q 2119 2422 2012 2495 
Q 1906 2569 1756 2569 
Q 1603 2569 1437 2487 
Q 1272 2406 1041 2159 
L 1041 647 
Q 1041 353 1073 281 
Q 1106 209 1195 161 
Q 1284 113 1503 113 
L 1503 0 
L 84 0 
L 84 113 
Q 275 113 384 172 
Q 447 203 484 290 
Q 522 378 522 647 
L 522 3238 
Q 522 3728 498 3840 
Q 475 3953 426 3993 
Q 378 4034 297 4034 
Q 231 4034 84 3984 
L 41 4094 
L 897 4444 
L 1041 4444 
z
" transform="scale(0.015625)"/>
       <path id="TimesNewRomanPSMT-73" d="M 2050 2947 
L 2050 1972 
L 1947 1972 
Q 1828 2431 1642 2597 
Q 1456 2763 1169 2763 
Q 950 2763 815 2647 
Q 681 2531 681 2391 
Q 681 2216 781 2091 
Q 878 1963 1175 1819 
L 1631 1597 
Q 2266 1288 2266 781 
Q 2266 391 1970 151 
Q 1675 -88 1309 -88 
Q 1047 -88 709 6 
Q 606 38 541 38 
Q 469 38 428 -44 
L 325 -44 
L 325 978 
L 428 978 
Q 516 541 762 319 
Q 1009 97 1316 97 
Q 1531 97 1667 223 
Q 1803 350 1803 528 
Q 1803 744 1651 891 
Q 1500 1038 1047 1263 
Q 594 1488 453 1669 
Q 313 1847 313 2119 
Q 313 2472 555 2709 
Q 797 2947 1181 2947 
Q 1350 2947 1591 2875 
Q 1750 2828 1803 2828 
Q 1853 2828 1881 2850 
Q 1909 2872 1947 2947 
L 2050 2947 
z
" transform="scale(0.015625)"/>
      </defs>
      <use xlink:href="#TimesNewRomanPSMT-65"/>
      <use xlink:href="#TimesNewRomanPSMT-70" x="44.384766"/>
      <use xlink:href="#TimesNewRomanPSMT-6f" x="94.384766"/>
      <use xlink:href="#TimesNewRomanPSMT-63" x="144.384766"/>
      <use xlink:href="#TimesNewRomanPSMT-68" x="188.769531"/>
      <use xlink:href="#TimesNewRomanPSMT-73" x="238.769531"/>
     </g>
    </g>
   </g>
   <g id="matplotlib.axis_2">
    <g id="ytick_1">
     <g id="line2d_13">
      <path d="M 54.574219 271.518615 
L 434.614219 271.518615 
" clip-path="url(#p80fb911516)" style="fill: none; stroke: #cccccc; stroke-width: 0.8; stroke-linecap: round"/>
     </g>
     <g id="line2d_14"/>
     <g id="text_8">
      <!-- 0.00 -->
      <g style="fill: #262626" transform="translate(24.824219 276.726428) scale(0.15 -0.15)">
       <defs>
        <path id="TimesNewRomanPSMT-2e" d="M 800 606 
Q 947 606 1047 504 
Q 1147 403 1147 259 
Q 1147 116 1045 14 
Q 944 -88 800 -88 
Q 656 -88 554 14 
Q 453 116 453 259 
Q 453 406 554 506 
Q 656 606 800 606 
z
" transform="scale(0.015625)"/>
       </defs>
       <use xlink:href="#TimesNewRomanPSMT-30"/>
       <use xlink:href="#TimesNewRomanPSMT-2e" x="50"/>
       <use xlink:href="#TimesNewRomanPSMT-30" x="75"/>
       <use xlink:href="#TimesNewRomanPSMT-30" x="125"/>
      </g>
     </g>
    </g>
    <g id="ytick_2">
     <g id="line2d_15">
      <path d="M 54.574219 234.990447 
L 434.614219 234.990447 
" clip-path="url(#p80fb911516)" style="fill: none; stroke: #cccccc; stroke-width: 0.8; stroke-linecap: round"/>
     </g>
     <g id="line2d_16"/>
     <g id="text_9">
      <!-- 0.25 -->
      <g style="fill: #262626" transform="translate(24.824219 240.198259) scale(0.15 -0.15)">
       <defs>
        <path id="TimesNewRomanPSMT-35" d="M 2778 4238 
L 2534 3706 
L 1259 3706 
L 981 3138 
Q 1809 3016 2294 2522 
Q 2709 2097 2709 1522 
Q 2709 1188 2573 903 
Q 2438 619 2231 419 
Q 2025 219 1772 97 
Q 1413 -75 1034 -75 
Q 653 -75 479 54 
Q 306 184 306 341 
Q 306 428 378 495 
Q 450 563 559 563 
Q 641 563 702 538 
Q 763 513 909 409 
Q 1144 247 1384 247 
Q 1750 247 2026 523 
Q 2303 800 2303 1197 
Q 2303 1581 2056 1914 
Q 1809 2247 1375 2428 
Q 1034 2569 447 2591 
L 1259 4238 
L 2778 4238 
z
" transform="scale(0.015625)"/>
       </defs>
       <use xlink:href="#TimesNewRomanPSMT-30"/>
       <use xlink:href="#TimesNewRomanPSMT-2e" x="50"/>
       <use xlink:href="#TimesNewRomanPSMT-32" x="75"/>
       <use xlink:href="#TimesNewRomanPSMT-35" x="125"/>
      </g>
     </g>
    </g>
    <g id="ytick_3">
     <g id="line2d_17">
      <path d="M 54.574219 198.462279 
L 434.614219 198.462279 
" clip-path="url(#p80fb911516)" style="fill: none; stroke: #cccccc; stroke-width: 0.8; stroke-linecap: round"/>
     </g>
     <g id="line2d_18"/>
     <g id="text_10">
      <!-- 0.50 -->
      <g style="fill: #262626" transform="translate(24.824219 203.670091) scale(0.15 -0.15)">
       <use xlink:href="#TimesNewRomanPSMT-30"/>
       <use xlink:href="#TimesNewRomanPSMT-2e" x="50"/>
       <use xlink:href="#TimesNewRomanPSMT-35" x="75"/>
       <use xlink:href="#TimesNewRomanPSMT-30" x="125"/>
      </g>
     </g>
    </g>
    <g id="ytick_4">
     <g id="line2d_19">
      <path d="M 54.574219 161.93411 
L 434.614219 161.93411 
" clip-path="url(#p80fb911516)" style="fill: none; stroke: #cccccc; stroke-width: 0.8; stroke-linecap: round"/>
     </g>
     <g id="line2d_20"/>
     <g id="text_11">
      <!-- 0.75 -->
      <g style="fill: #262626" transform="translate(24.824219 167.141923) scale(0.15 -0.15)">
       <defs>
        <path id="TimesNewRomanPSMT-37" d="M 644 4238 
L 2916 4238 
L 2916 4119 
L 1503 -88 
L 1153 -88 
L 2419 3728 
L 1253 3728 
Q 900 3728 750 3644 
Q 488 3500 328 3200 
L 238 3234 
L 644 4238 
z
" transform="scale(0.015625)"/>
       </defs>
       <use xlink:href="#TimesNewRomanPSMT-30"/>
       <use xlink:href="#TimesNewRomanPSMT-2e" x="50"/>
       <use xlink:href="#TimesNewRomanPSMT-37" x="75"/>
       <use xlink:href="#TimesNewRomanPSMT-35" x="125"/>
      </g>
     </g>
    </g>
    <g id="ytick_5">
     <g id="line2d_21">
      <path d="M 54.574219 125.405942 
L 434.614219 125.405942 
" clip-path="url(#p80fb911516)" style="fill: none; stroke: #cccccc; stroke-width: 0.8; stroke-linecap: round"/>
     </g>
     <g id="line2d_22"/>
     <g id="text_12">
      <!-- 1.00 -->
      <g style="fill: #262626" transform="translate(24.824219 130.613755) scale(0.15 -0.15)">
       <use xlink:href="#TimesNewRomanPSMT-31"/>
       <use xlink:href="#TimesNewRomanPSMT-2e" x="50"/>
       <use xlink:href="#TimesNewRomanPSMT-30" x="75"/>
       <use xlink:href="#TimesNewRomanPSMT-30" x="125"/>
      </g>
     </g>
    </g>
    <g id="ytick_6">
     <g id="line2d_23">
      <path d="M 54.574219 88.877774 
L 434.614219 88.877774 
" clip-path="url(#p80fb911516)" style="fill: none; stroke: #cccccc; stroke-width: 0.8; stroke-linecap: round"/>
     </g>
     <g id="line2d_24"/>
     <g id="text_13">
      <!-- 1.25 -->
      <g style="fill: #262626" transform="translate(24.824219 94.085586) scale(0.15 -0.15)">
       <use xlink:href="#TimesNewRomanPSMT-31"/>
       <use xlink:href="#TimesNewRomanPSMT-2e" x="50"/>
       <use xlink:href="#TimesNewRomanPSMT-32" x="75"/>
       <use xlink:href="#TimesNewRomanPSMT-35" x="125"/>
      </g>
     </g>
    </g>
    <g id="ytick_7">
     <g id="line2d_25">
      <path d="M 54.574219 52.349606 
L 434.614219 52.349606 
" clip-path="url(#p80fb911516)" style="fill: none; stroke: #cccccc; stroke-width: 0.8; stroke-linecap: round"/>
     </g>
     <g id="line2d_26"/>
     <g id="text_14">
      <!-- 1.50 -->
      <g style="fill: #262626" transform="translate(24.824219 57.557418) scale(0.15 -0.15)">
       <use xlink:href="#TimesNewRomanPSMT-31"/>
       <use xlink:href="#TimesNewRomanPSMT-2e" x="50"/>
       <use xlink:href="#TimesNewRomanPSMT-35" x="75"/>
       <use xlink:href="#TimesNewRomanPSMT-30" x="125"/>
      </g>
     </g>
    </g>
    <g id="ytick_8">
     <g id="line2d_27">
      <path d="M 54.574219 15.821437 
L 434.614219 15.821437 
" clip-path="url(#p80fb911516)" style="fill: none; stroke: #cccccc; stroke-width: 0.8; stroke-linecap: round"/>
     </g>
     <g id="line2d_28"/>
     <g id="text_15">
      <!-- 1.75 -->
      <g style="fill: #262626" transform="translate(24.824219 21.02925) scale(0.15 -0.15)">
       <use xlink:href="#TimesNewRomanPSMT-31"/>
       <use xlink:href="#TimesNewRomanPSMT-2e" x="50"/>
       <use xlink:href="#TimesNewRomanPSMT-37" x="75"/>
       <use xlink:href="#TimesNewRomanPSMT-35" x="125"/>
      </g>
     </g>
    </g>
    <g id="text_16">
     <!-- SmoothL1Loss -->
     <g style="fill: #262626" transform="translate(17.615625 191.487891) rotate(-90) scale(0.15 -0.15)">
      <defs>
       <path id="TimesNewRomanPSMT-53" d="M 2934 4334 
L 2934 2869 
L 2819 2869 
Q 2763 3291 2617 3541 
Q 2472 3791 2203 3937 
Q 1934 4084 1647 4084 
Q 1322 4084 1109 3886 
Q 897 3688 897 3434 
Q 897 3241 1031 3081 
Q 1225 2847 1953 2456 
Q 2547 2138 2764 1967 
Q 2981 1797 3098 1565 
Q 3216 1334 3216 1081 
Q 3216 600 2842 251 
Q 2469 -97 1881 -97 
Q 1697 -97 1534 -69 
Q 1438 -53 1133 45 
Q 828 144 747 144 
Q 669 144 623 97 
Q 578 50 556 -97 
L 441 -97 
L 441 1356 
L 556 1356 
Q 638 900 775 673 
Q 913 447 1195 297 
Q 1478 147 1816 147 
Q 2206 147 2432 353 
Q 2659 559 2659 841 
Q 2659 997 2573 1156 
Q 2488 1316 2306 1453 
Q 2184 1547 1640 1851 
Q 1097 2156 867 2337 
Q 638 2519 519 2737 
Q 400 2956 400 3219 
Q 400 3675 750 4004 
Q 1100 4334 1641 4334 
Q 1978 4334 2356 4169 
Q 2531 4091 2603 4091 
Q 2684 4091 2736 4139 
Q 2788 4188 2819 4334 
L 2934 4334 
z
" transform="scale(0.015625)"/>
       <path id="TimesNewRomanPSMT-6d" d="M 1050 2338 
Q 1363 2650 1419 2697 
Q 1559 2816 1721 2881 
Q 1884 2947 2044 2947 
Q 2313 2947 2506 2790 
Q 2700 2634 2766 2338 
Q 3088 2713 3309 2830 
Q 3531 2947 3766 2947 
Q 3994 2947 4170 2830 
Q 4347 2713 4450 2447 
Q 4519 2266 4519 1878 
L 4519 647 
Q 4519 378 4559 278 
Q 4591 209 4675 161 
Q 4759 113 4950 113 
L 4950 0 
L 3538 0 
L 3538 113 
L 3597 113 
Q 3781 113 3884 184 
Q 3956 234 3988 344 
Q 4000 397 4000 647 
L 4000 1878 
Q 4000 2228 3916 2372 
Q 3794 2572 3525 2572 
Q 3359 2572 3192 2489 
Q 3025 2406 2788 2181 
L 2781 2147 
L 2788 2013 
L 2788 647 
Q 2788 353 2820 281 
Q 2853 209 2943 161 
Q 3034 113 3253 113 
L 3253 0 
L 1806 0 
L 1806 113 
Q 2044 113 2133 169 
Q 2222 225 2256 338 
Q 2272 391 2272 647 
L 2272 1878 
Q 2272 2228 2169 2381 
Q 2031 2581 1784 2581 
Q 1616 2581 1450 2491 
Q 1191 2353 1050 2181 
L 1050 647 
Q 1050 366 1089 281 
Q 1128 197 1204 155 
Q 1281 113 1516 113 
L 1516 0 
L 100 0 
L 100 113 
Q 297 113 375 155 
Q 453 197 493 289 
Q 534 381 534 647 
L 534 1741 
Q 534 2213 506 2350 
Q 484 2453 437 2492 
Q 391 2531 309 2531 
Q 222 2531 100 2484 
L 53 2597 
L 916 2947 
L 1050 2947 
L 1050 2338 
z
" transform="scale(0.015625)"/>
       <path id="TimesNewRomanPSMT-74" d="M 1031 3803 
L 1031 2863 
L 1700 2863 
L 1700 2644 
L 1031 2644 
L 1031 788 
Q 1031 509 1111 412 
Q 1191 316 1316 316 
Q 1419 316 1516 380 
Q 1613 444 1666 569 
L 1788 569 
Q 1678 263 1478 108 
Q 1278 -47 1066 -47 
Q 922 -47 784 33 
Q 647 113 581 261 
Q 516 409 516 719 
L 516 2644 
L 63 2644 
L 63 2747 
Q 234 2816 414 2980 
Q 594 3144 734 3369 
Q 806 3488 934 3803 
L 1031 3803 
z
" transform="scale(0.015625)"/>
       <path id="TimesNewRomanPSMT-4c" d="M 3669 1172 
L 3772 1150 
L 3409 0 
L 128 0 
L 128 116 
L 288 116 
Q 556 116 672 291 
Q 738 391 738 753 
L 738 3488 
Q 738 3884 650 3984 
Q 528 4122 288 4122 
L 128 4122 
L 128 4238 
L 2047 4238 
L 2047 4122 
Q 1709 4125 1573 4059 
Q 1438 3994 1388 3894 
Q 1338 3794 1338 3416 
L 1338 753 
Q 1338 494 1388 397 
Q 1425 331 1503 300 
Q 1581 269 1991 269 
L 2300 269 
Q 2788 269 2984 341 
Q 3181 413 3343 595 
Q 3506 778 3669 1172 
z
" transform="scale(0.015625)"/>
      </defs>
      <use xlink:href="#TimesNewRomanPSMT-53"/>
      <use xlink:href="#TimesNewRomanPSMT-6d" x="55.615234"/>
      <use xlink:href="#TimesNewRomanPSMT-6f" x="133.398438"/>
      <use xlink:href="#TimesNewRomanPSMT-6f" x="183.398438"/>
      <use xlink:href="#TimesNewRomanPSMT-74" x="233.398438"/>
      <use xlink:href="#TimesNewRomanPSMT-68" x="261.181641"/>
      <use xlink:href="#TimesNewRomanPSMT-4c" x="311.181641"/>
      <use xlink:href="#TimesNewRomanPSMT-31" x="372.265625"/>
      <use xlink:href="#TimesNewRomanPSMT-4c" x="422.265625"/>
      <use xlink:href="#TimesNewRomanPSMT-6f" x="483.349609"/>
      <use xlink:href="#TimesNewRomanPSMT-73" x="533.349609"/>
      <use xlink:href="#TimesNewRomanPSMT-73" x="572.265625"/>
     </g>
    </g>
   </g>
   <g id="line2d_29">
    <path d="M 71.848764 85.425598 
L 71.925027 19.786364 
L 72.77085 119.839711 
L 72.850579 96.355473 
L 73.848927 176.900665 
L 74.389699 186.923053 
L 74.465962 180.202044 
L 74.542225 202.279618 
L 74.930471 184.228595 
L 75.54404 225.834695 
L 75.623769 213.37782 
L 76.161074 242.906147 
L 76.237337 224.196798 
L 76.701846 243.88531 
L 77.086626 244.744771 
L 77.623932 252.569373 
L 78.396958 257.701267 
L 78.702009 252.236885 
L 78.934264 256.202613 
L 79.010527 260.56338 
L 80.088604 264.461837 
L 80.397122 263.335122 
L 80.476851 260.835965 
L 80.629376 264.715218 
L 80.781902 258.436992 
L 81.246411 257.546428 
L 81.863446 258.812475 
L 82.015971 262.465151 
L 82.092234 261.397239 
L 82.324488 254.152657 
L 82.861794 249.024004 
L 83.094049 257.940044 
L 83.25004 249.077506 
L 83.402566 254.649767 
L 83.943338 256.513704 
L 84.019601 264.532708 
L 84.404381 263.937473 
L 84.941686 267.403261 
L 85.021415 246.795577 
L 85.097678 257.090582 
L 85.482458 254.65401 
L 85.558721 266.595719 
L 86.099493 264.818206 
L 86.328281 265.122805 
L 86.40801 265.759718 
L 86.560536 262.285203 
L 87.021578 265.971367 
L 87.17757 263.047624 
L 87.330096 263.476979 
L 88.023393 246.560221 
L 88.408173 268.775307 
L 89.56598 263.595945 
L 89.642243 263.63539 
L 90.644058 264.704446 
L 90.72032 262.949902 
L 90.796583 257.563016 
L 91.645872 263.425201 
L 91.874661 268.351726 
L 92.183178 261.132801 
L 92.72395 256.310989 
L 92.956205 252.874029 
L 93.10873 264.13541 
L 93.49351 261.294798 
L 93.649502 264.93111 
L 93.725765 257.199519 
L 94.495325 261.403192 
L 94.803842 264.968696 
L 95.11236 266.779408 
L 95.264885 265.055623 
L 95.341148 268.476855 
L 95.573402 265.817326 
L 96.727743 261.983068 
L 97.344777 261.760048 
L 97.42104 266.545402 
L 98.038075 267.102137 
L 98.346592 268.158407 
L 98.807635 266.159751 
L 98.887364 258.982509 
L 98.963627 260.255449 
L 99.889179 257.809131 
L 100.502747 268.251258 
L 100.811264 263.091561 
L 101.352036 267.822228 
L 101.736816 265.328085 
L 101.889342 267.308755 
L 102.738631 268.144888 
L 103.275937 270.00321 
L 104.354014 262.025362 
L 104.433743 267.492427 
L 104.586269 264.840603 
L 104.894786 266.413431 
L 105.127041 264.710957 
L 105.588084 268.276417 
L 105.896601 263.863434 
L 106.281381 268.943632 
L 106.589899 268.568769 
L 106.822153 267.876358 
L 106.974679 260.36143 
L 107.283196 264.179373 
L 107.359459 268.976508 
L 107.820501 268.012277 
L 108.285011 268.224172 
L 108.437536 260.724015 
L 108.822316 263.382419 
L 110.056386 266.160112 
L 110.132648 266.938291 
L 110.208911 265.928752 
L 110.28864 266.600303 
L 110.364903 269.588106 
L 110.593691 268.700129 
L 110.67342 269.666872 
L 110.749683 266.76177 
L 111.827761 269.226315 
L 111.904023 266.242064 
L 112.060015 268.992774 
L 112.136278 265.498577 
L 112.212541 267.101277 
L 112.368533 266.47297 
L 112.673583 269.218789 
L 112.829575 268.388988 
L 113.290618 267.835013 
L 113.599136 264.441511 
L 114.21617 267.233736 
L 114.524688 265.639177 
L 114.909468 260.687612 
L 115.755291 270.013033 
L 115.83502 266.562037 
L 116.2198 263.573997 
L 116.296063 266.821126 
L 116.528317 267.176192 
L 116.680843 268.827163 
L 117.221615 268.678098 
L 117.606395 269.237337 
L 117.991175 266.893632 
L 118.067437 270.102372 
L 118.684472 269.816419 
L 118.760735 267.850901 
L 119.145515 268.539319 
L 119.221778 266.618529 
L 119.530295 264.389579 
L 119.838812 267.056364 
L 120.299855 267.325544 
L 120.379584 268.835016 
L 120.764364 269.937095 
L 120.91689 269.082383 
L 121.225407 265.982257 
L 121.610187 268.542803 
L 122.150959 269.999992 
L 122.379748 269.516122 
L 122.767994 269.37935 
L 122.844257 267.901169 
L 123.152774 269.181778 
L 123.461292 267.653574 
L 124.07486 266.376387 
L 124.230852 267.544142 
L 125.461455 269.619764 
L 126.310744 269.332667 
L 126.463269 268.037666 
L 126.695524 270.28367 
L 126.848049 268.207002 
L 126.927779 269.750829 
L 127.080304 263.874307 
L 127.156567 267.869406 
L 127.23283 267.271412 
L 127.621076 269.530986 
L 128.082119 264.814397 
L 129.621239 267.98265 
L 129.700968 269.872717 
L 130.238274 269.523423 
L 130.470529 269.05515 
L 130.546791 269.944207 
L 130.699317 267.062327 
L 130.855309 267.928566 
L 131.007834 267.184263 
L 131.472343 270.279588 
L 132.702946 270.288968 
L 132.779209 267.114883 
L 132.935201 268.711178 
L 133.167456 268.435657 
L 133.781024 266.929396 
L 133.860753 269.543635 
L 134.859101 269.445492 
L 135.091356 270.223815 
L 135.167619 270.081171 
L 135.476136 268.62647 
L 135.708391 270.189352 
L 135.860916 269.476606 
L 136.325425 268.257597 
L 136.786468 269.030952 
L 137.018723 268.08893 
L 137.171248 265.841498 
L 137.479766 270.056738 
L 137.788283 267.319297 
L 137.864546 268.777554 
L 138.86636 269.094222 
L 139.018886 268.812606 
L 139.483395 267.477362 
L 139.712183 270.566038 
L 140.176693 268.725555 
L 140.252955 268.762378 
L 140.713998 270.574168 
L 141.487025 267.758802 
L 142.40911 268.813352 
L 142.565102 270.352661 
L 143.334662 269.545718 
L 143.871968 270.347352 
L 144.104223 270.189237 
L 144.336477 270.324172 
L 144.953512 266.150471 
L 146.184115 270.275904 
L 146.416369 268.842518 
L 147.18593 269.874418 
L 147.338455 269.183156 
L 147.726702 268.542976 
L 147.95549 270.197669 
L 148.111482 268.724041 
L 148.264007 269.741281 
L 148.957305 268.379895 
L 149.498077 269.630781 
L 149.806594 270.013213 
L 149.959119 269.397414 
L 150.576154 269.310162 
L 150.652417 268.857369 
L 151.345714 270.514823 
L 152.115274 269.468962 
L 152.423792 269.860672 
L 152.579784 268.686452 
L 153.193352 267.05702 
L 153.273081 268.658751 
L 153.425606 267.902003 
L 153.734124 270.107671 
L 154.427421 270.63079 
L 155.352973 267.937515 
L 155.658024 270.342182 
L 155.814016 269.480654 
L 156.198796 270.701186 
L 156.351322 270.289978 
L 157.200611 269.259436 
L 157.432866 270.134447 
L 157.509128 269.701441 
L 157.737917 269.267217 
L 157.970171 270.256019 
L 158.126163 269.553642 
L 159.048249 270.134794 
L 159.433029 270.602095 
L 159.512758 269.92429 
L 160.434844 269.753521 
L 161.204404 268.764472 
L 161.360396 269.898001 
L 161.436658 269.768428 
L 161.97743 270.089314 
L 162.36221 269.188945 
L 162.670728 270.623231 
L 162.74699 268.2529 
L 163.672543 270.471367 
L 164.286111 268.908717 
L 164.594628 270.453613 
L 164.979408 269.27234 
L 165.1354 270.244045 
L 165.443917 269.518958 
L 166.598258 268.495208 
L 166.750783 268.804515 
L 167.0593 270.090188 
L 167.13903 269.197966 
L 167.367818 270.475689 
L 167.600072 269.784867 
L 167.832327 269.804916 
L 167.90859 270.530195 
L 168.369633 270.147651 
L 169.06293 270.035995 
L 169.218922 268.835291 
L 169.523973 268.973919 
L 169.756227 269.58327 
L 170.141008 270.202605 
L 170.373262 270.051813 
L 170.758042 270.041561 
L 170.834305 270.889702 
L 171.06656 270.404808 
L 171.375077 270.17046 
L 172.068374 270.754858 
L 172.837935 270.502947 
L 172.914197 269.69896 
L 173.607495 270.423179 
L 174.60931 269.872951 
L 175.070352 270.424901 
L 175.534862 270.094966 
L 175.843379 270.193781 
L 176.689202 270.666941 
L 176.765465 270.083716 
L 177.073982 269.072576 
L 177.538491 268.207846 
L 177.843542 270.054148 
L 178.075797 268.629875 
L 179.923434 270.505758 
L 180.231952 270.389636 
L 181.004978 270.407992 
L 181.542284 270.255037 
L 181.618547 269.730839 
L 181.698276 270.610062 
L 181.774538 270.370184 
L 182.391573 270.630181 
L 183.005141 270.228541 
L 183.237396 270.683328 
L 183.313659 270.684135 
L 184.239211 270.04653 
L 184.315474 269.670437 
L 184.471465 270.996892 
L 185.317288 270.007005 
L 185.549543 268.953573 
L 185.85806 270.166107 
L 186.163111 269.3574 
L 186.471629 269.906066 
L 187.088663 270.415908 
L 187.320918 269.584188 
L 187.549706 269.130499 
L 188.475258 270.335161 
L 188.936301 270.43546 
L 189.168556 268.952154 
L 189.244818 269.968627 
L 190.017845 270.048104 
L 190.246633 270.315937 
L 190.322896 270.239717 
L 191.095922 270.415096 
L 191.324711 271.069337 
L 191.40444 270.827864 
L 191.556965 271.001246 
L 191.865483 271.138508 
L 191.941745 270.271019 
L 192.482517 270.716833 
L 192.867297 270.143573 
L 193.71312 271.012601 
L 194.0979 270.742735 
L 194.253892 270.998052 
L 196.10153 270.82107 
L 196.718565 271.137739 
L 196.87109 270.934145 
L 197.103345 269.589822 
L 197.564387 269.788038 
L 197.644117 270.950998 
L 198.181422 270.639264 
L 198.798457 269.781656 
L 199.415492 267.709357 
L 199.724009 269.585932 
L 199.952797 270.232326 
L 200.108789 269.924558 
L 200.722357 269.90205 
L 201.263129 270.557497 
L 202.032689 270.985352 
L 202.417469 270.705994 
L 202.497199 271.146572 
L 202.573461 270.727679 
L 203.110767 270.449271 
L 203.419284 271.009421 
L 203.495547 270.570057 
L 204.036319 270.932139 
L 204.653354 270.331444 
L 204.729616 270.889768 
L 205.038134 271.161283 
L 205.190659 270.436728 
L 205.883957 269.964341 
L 206.733246 269.97981 
L 207.502806 270.921083 
L 207.655332 270.257047 
L 208.196104 270.626785 
L 208.272366 271.013291 
L 208.348629 270.138049 
L 208.813138 270.818415 
L 209.121656 269.388089 
L 209.430173 270.312281 
L 210.893031 269.873834 
L 211.201548 270.359496 
L 211.510065 270.062242 
L 211.894845 270.85111 
L 212.355888 270.983474 
L 213.049186 271.182601 
L 213.357703 270.975799 
L 214.051 270.703973 
L 214.43578 270.836622 
L 214.512043 269.703998 
L 214.588306 270.807894 
L 215.822375 270.845381 
L 216.207155 270.063808 
L 216.747927 270.889753 
L 217.056445 270.491325 
L 217.285233 270.727874 
L 217.749742 270.954492 
L 217.826005 270.575672 
L 217.902268 270.978145 
L 218.134522 270.767807 
L 218.519302 271.111203 
L 218.980345 270.449235 
L 219.056608 270.774011 
L 219.829634 270.722502 
L 219.905897 271.072992 
L 220.290677 271.00328 
L 220.599195 270.990486 
L 220.75172 271.159004 
L 221.216229 270.719464 
L 221.445018 271.17097 
L 221.753535 271.156005 
L 221.829798 270.890041 
L 221.98579 270.821355 
L 222.062052 271.035856 
L 222.214578 270.741579 
L 223.063867 270.532659 
L 223.216392 270.35346 
L 223.833427 268.954875 
L 223.90969 270.199778 
L 224.141945 270.27388 
L 227.532169 270.906017 
L 227.608432 270.484731 
L 228.149204 270.762322 
L 228.995027 270.617469 
L 229.071289 271.111505 
L 229.996841 270.776692 
L 230.229096 270.909884 
L 230.922393 270.992523 
L 231.691954 270.889196 
L 232.308988 271.163768 
L 232.385251 270.510296 
L 232.537776 270.779293 
L 232.770031 270.528291 
L 233.231074 270.920666 
L 233.307337 270.287774 
L 233.615854 270.130359 
L 233.695583 271.09793 
L 234.000634 270.310409 
L 234.080363 270.553633 
L 234.617669 269.517811 
L 235.310966 270.670714 
L 235.543221 270.618821 
L 236.312781 271.143004 
L 237.082341 270.694869 
L 237.855368 271.01692 
L 238.392673 270.981319 
L 239.241963 270.569697 
L 239.779268 271.076582 
L 240.472566 270.778326 
L 241.398118 271.304162 
L 241.85916 270.844586 
L 242.167678 270.774497 
L 243.013501 270.381603 
L 243.245755 271.095187 
L 243.630535 269.533198 
L 244.63235 270.465816 
L 246.479988 271.111286 
L 248.331092 270.968479 
L 248.407355 270.483135 
L 248.792135 271.125793 
L 249.793949 270.941166 
L 250.410984 270.940681 
L 250.639772 270.651659 
L 251.180544 271.041857 
L 251.489062 270.853022 
L 251.950104 270.676508 
L 252.490876 271.146989 
L 253.568954 270.873147 
L 254.799557 271.191407 
L 254.955549 270.945003 
L 255.108074 271.234066 
L 255.187804 271.045425 
L 255.416592 271.302381 
L 255.492854 271.173373 
L 257.805001 271.320446 
L 258.037256 271.17689 
L 258.345773 271.328561 
L 258.422036 271.167761 
L 258.883079 270.99006 
L 259.808631 271.086915 
L 260.578191 271.335492 
L 260.654454 271.221408 
L 260.962971 271.209442 
L 261.580006 271.383158 
L 262.197041 271.341116 
L 262.505558 270.433486 
L 262.814075 270.618879 
L 263.351381 271.140953 
L 263.583635 270.831436 
L 263.736161 271.301071 
L 263.812424 271.081762 
L 263.968415 271.061888 
L 264.353196 271.29075 
L 264.661713 270.912904 
L 264.737976 271.137367 
L 264.814238 271.04129 
L 265.122756 271.328341 
L 265.663528 271.255287 
L 266.280562 271.20682 
L 269.28254 271.230084 
L 269.358803 271.006139 
L 269.823312 271.220189 
L 269.899575 270.860632 
L 270.208092 271.030192 
L 270.440347 270.844057 
L 270.977653 270.793036 
L 271.133644 270.997704 
L 271.518425 271.181931 
L 273.67458 271.411896 
L 273.750842 271.294132 
L 273.983097 271.219181 
L 274.05936 271.324728 
L 274.135622 271.238344 
L 274.367877 271.314012 
L 275.830735 270.948194 
L 276.756287 271.216746 
L 277.910627 271.283069 
L 278.219144 271.346642 
L 279.373484 271.187584 
L 279.758264 271.268959 
L 280.066782 271.256629 
L 280.146511 271.373807 
L 280.222774 271.240939 
L 281.377114 271.400289 
L 282.146674 271.17757 
L 282.839972 271.34802 
L 282.919701 271.117635 
L 282.995963 271.165007 
L 283.380744 271.322063 
L 283.457006 271.077995 
L 284.535084 271.368163 
L 284.767338 271.296124 
L 289.23564 271.335839 
L 289.388166 271.153223 
L 289.62042 271.333511 
L 289.852675 271.216103 
L 290.389981 271.367838 
L 290.466243 271.269342 
L 291.007015 271.332745 
L 291.544321 271.28596 
L 295.783835 271.395943 
L 296.012623 271.313498 
L 297.93999 271.426322 
L 298.401032 271.191996 
L 298.633287 271.39083 
L 298.941804 271.268807 
L 299.787627 271.399483 
L 300.636917 271.326482 
L 300.789442 271.145526 
L 301.330214 271.422005 
L 301.791257 271.273685 
L 302.176037 271.416987 
L 303.330377 271.39849 
L 304.488184 271.431163 
L 307.185111 271.45844 
L 307.569891 271.27874 
L 308.339451 271.39365 
L 308.800494 271.348922 
L 309.265003 271.437388 
L 309.493791 271.275799 
L 309.802309 271.211015 
L 309.878571 271.428043 
L 309.958301 271.34624 
L 310.110826 271.316371 
L 310.727861 271.429255 
L 317.584572 271.427622 
L 320.125507 271.419009 
L 321.05106 271.425278 
L 323.051223 271.434044 
L 323.436003 271.364703 
L 327.058482 271.479411 
L 389.840031 271.510925 
L 394.925367 271.508892 
L 417.339673 271.512293 
L 417.339673 271.512293 
" clip-path="url(#p80fb911516)" style="fill: none; stroke: #ff0000; stroke-width: 2; stroke-linecap: round"/>
   </g>
   <g id="patch_3">
    <path d="M 54.574219 284.1 
L 54.574219 7.2 
" style="fill: none; stroke: #cccccc; stroke-linejoin: miter; stroke-linecap: square"/>
   </g>
   <g id="patch_4">
    <path d="M 434.614219 284.1 
L 434.614219 7.2 
" style="fill: none; stroke: #cccccc; stroke-linejoin: miter; stroke-linecap: square"/>
   </g>
   <g id="patch_5">
    <path d="M 54.574219 284.1 
L 434.614219 284.1 
" style="fill: none; stroke: #cccccc; stroke-linejoin: miter; stroke-linecap: square"/>
   </g>
   <g id="patch_6">
    <path d="M 54.574219 7.2 
L 434.614219 7.2 
" style="fill: none; stroke: #cccccc; stroke-linejoin: miter; stroke-linecap: square"/>
   </g>
  </g>
 </g>
 <defs>
  <clipPath id="p80fb911516">
   <rect x="54.574219" y="7.2" width="380.04" height="276.9"/>
  </clipPath>
 </defs>
</svg>
