<?xml version="1.0" encoding="utf-8" standalone="no"?>
<!DOCTYPE svg PUBLIC "-//W3C//DTD SVG 1.1//EN"
  "http://www.w3.org/Graphics/SVG/1.1/DTD/svg11.dtd">
<svg xmlns:xlink="http://www.w3.org/1999/xlink" width="441.814219pt" height="326.048437pt" viewBox="0 0 441.814219 326.048437" xmlns="http://www.w3.org/2000/svg" version="1.1">
 <metadata>
  <rdf:RDF xmlns:dc="http://purl.org/dc/elements/1.1/" xmlns:cc="http://creativecommons.org/ns#" xmlns:rdf="http://www.w3.org/1999/02/22-rdf-syntax-ns#">
   <cc:Work>
    <dc:type rdf:resource="http://purl.org/dc/dcmitype/StillImage"/>
    <dc:date>2025-05-19T21:19:43.731683</dc:date>
    <dc:format>image/svg+xml</dc:format>
    <dc:creator>
     <cc:Agent>
      <dc:title>Matplotlib v3.8.2, https://matplotlib.org/</dc:title>
     </cc:Agent>
    </dc:creator>
   </cc:Work>
  </rdf:RDF>
 </metadata>
 <defs>
  <style type="text/css">*{stroke-linejoin: round; stroke-linecap: butt}</style>
 </defs>
 <g id="figure_1">
  <g id="patch_1">
   <path d="M 0 326.048437 
L 441.814219 326.048437 
L 441.814219 0 
L 0 0 
z
" style="fill: #ffffff"/>
  </g>
  <g id="axes_1">
   <g id="patch_2">
    <path d="M 54.574219 284.1 
L 434.614219 284.1 
L 434.614219 7.2 
L 54.574219 7.2 
z
" style="fill: #ffffff"/>
   </g>
   <g id="matplotlib.axis_1">
    <g id="xtick_1">
     <g id="line2d_1">
      <path d="M 71.327129 284.1 
L 71.327129 7.2 
" clip-path="url(#p1d93cea93b)" style="fill: none; stroke: #cccccc; stroke-width: 0.8; stroke-linecap: round"/>
     </g>
     <g id="line2d_2"/>
     <g id="text_1">
      <!-- 0 -->
      <g style="fill: #262626" transform="translate(67.577129 298.015625) scale(0.15 -0.15)">
       <defs>
        <path id="TimesNewRomanPSMT-30" d="M 231 2094 
Q 231 2819 450 3342 
Q 669 3866 1031 4122 
Q 1313 4325 1613 4325 
Q 2100 4325 2488 3828 
Q 2972 3213 2972 2159 
Q 2972 1422 2759 906 
Q 2547 391 2217 158 
Q 1888 -75 1581 -75 
Q 975 -75 572 641 
Q 231 1244 231 2094 
z
M 844 2016 
Q 844 1141 1059 588 
Q 1238 122 1591 122 
Q 1759 122 1940 273 
Q 2122 425 2216 781 
Q 2359 1319 2359 2297 
Q 2359 3022 2209 3506 
Q 2097 3866 1919 4016 
Q 1791 4119 1609 4119 
Q 1397 4119 1231 3928 
Q 1006 3669 925 3112 
Q 844 2556 844 2016 
z
" transform="scale(0.015625)"/>
       </defs>
       <use xlink:href="#TimesNewRomanPSMT-30"/>
      </g>
     </g>
    </g>
    <g id="xtick_2">
     <g id="line2d_3">
      <path d="M 128.998194 284.1 
L 128.998194 7.2 
" clip-path="url(#p1d93cea93b)" style="fill: none; stroke: #cccccc; stroke-width: 0.8; stroke-linecap: round"/>
     </g>
     <g id="line2d_4"/>
     <g id="text_2">
      <!-- 200 -->
      <g style="fill: #262626" transform="translate(117.748194 298.015625) scale(0.15 -0.15)">
       <defs>
        <path id="TimesNewRomanPSMT-32" d="M 2934 816 
L 2638 0 
L 138 0 
L 138 116 
Q 1241 1122 1691 1759 
Q 2141 2397 2141 2925 
Q 2141 3328 1894 3587 
Q 1647 3847 1303 3847 
Q 991 3847 742 3664 
Q 494 3481 375 3128 
L 259 3128 
Q 338 3706 661 4015 
Q 984 4325 1469 4325 
Q 1984 4325 2329 3994 
Q 2675 3663 2675 3213 
Q 2675 2891 2525 2569 
Q 2294 2063 1775 1497 
Q 997 647 803 472 
L 1909 472 
Q 2247 472 2383 497 
Q 2519 522 2628 598 
Q 2738 675 2819 816 
L 2934 816 
z
" transform="scale(0.015625)"/>
       </defs>
       <use xlink:href="#TimesNewRomanPSMT-32"/>
       <use xlink:href="#TimesNewRomanPSMT-30" x="50"/>
       <use xlink:href="#TimesNewRomanPSMT-30" x="100"/>
      </g>
     </g>
    </g>
    <g id="xtick_3">
     <g id="line2d_5">
      <path d="M 186.669258 284.1 
L 186.669258 7.2 
" clip-path="url(#p1d93cea93b)" style="fill: none; stroke: #cccccc; stroke-width: 0.8; stroke-linecap: round"/>
     </g>
     <g id="line2d_6"/>
     <g id="text_3">
      <!-- 400 -->
      <g style="fill: #262626" transform="translate(175.419258 298.015625) scale(0.15 -0.15)">
       <defs>
        <path id="TimesNewRomanPSMT-34" d="M 2978 1563 
L 2978 1119 
L 2409 1119 
L 2409 0 
L 1894 0 
L 1894 1119 
L 100 1119 
L 100 1519 
L 2066 4325 
L 2409 4325 
L 2409 1563 
L 2978 1563 
z
M 1894 1563 
L 1894 3666 
L 406 1563 
L 1894 1563 
z
" transform="scale(0.015625)"/>
       </defs>
       <use xlink:href="#TimesNewRomanPSMT-34"/>
       <use xlink:href="#TimesNewRomanPSMT-30" x="50"/>
       <use xlink:href="#TimesNewRomanPSMT-30" x="100"/>
      </g>
     </g>
    </g>
    <g id="xtick_4">
     <g id="line2d_7">
      <path d="M 244.340322 284.1 
L 244.340322 7.2 
" clip-path="url(#p1d93cea93b)" style="fill: none; stroke: #cccccc; stroke-width: 0.8; stroke-linecap: round"/>
     </g>
     <g id="line2d_8"/>
     <g id="text_4">
      <!-- 600 -->
      <g style="fill: #262626" transform="translate(233.090322 298.015625) scale(0.15 -0.15)">
       <defs>
        <path id="TimesNewRomanPSMT-36" d="M 2869 4325 
L 2869 4209 
Q 2456 4169 2195 4045 
Q 1934 3922 1679 3669 
Q 1425 3416 1258 3105 
Q 1091 2794 978 2366 
Q 1428 2675 1881 2675 
Q 2316 2675 2634 2325 
Q 2953 1975 2953 1425 
Q 2953 894 2631 456 
Q 2244 -75 1606 -75 
Q 1172 -75 869 213 
Q 275 772 275 1663 
Q 275 2231 503 2743 
Q 731 3256 1154 3653 
Q 1578 4050 1965 4187 
Q 2353 4325 2688 4325 
L 2869 4325 
z
M 925 2138 
Q 869 1716 869 1456 
Q 869 1156 980 804 
Q 1091 453 1309 247 
Q 1469 100 1697 100 
Q 1969 100 2183 356 
Q 2397 613 2397 1088 
Q 2397 1622 2184 2012 
Q 1972 2403 1581 2403 
Q 1463 2403 1327 2353 
Q 1191 2303 925 2138 
z
" transform="scale(0.015625)"/>
       </defs>
       <use xlink:href="#TimesNewRomanPSMT-36"/>
       <use xlink:href="#TimesNewRomanPSMT-30" x="50"/>
       <use xlink:href="#TimesNewRomanPSMT-30" x="100"/>
      </g>
     </g>
    </g>
    <g id="xtick_5">
     <g id="line2d_9">
      <path d="M 302.011386 284.1 
L 302.011386 7.2 
" clip-path="url(#p1d93cea93b)" style="fill: none; stroke: #cccccc; stroke-width: 0.8; stroke-linecap: round"/>
     </g>
     <g id="line2d_10"/>
     <g id="text_5">
      <!-- 800 -->
      <g style="fill: #262626" transform="translate(290.761386 298.015625) scale(0.15 -0.15)">
       <defs>
        <path id="TimesNewRomanPSMT-38" d="M 1228 2134 
Q 725 2547 579 2797 
Q 434 3047 434 3316 
Q 434 3728 753 4026 
Q 1072 4325 1600 4325 
Q 2113 4325 2425 4047 
Q 2738 3769 2738 3413 
Q 2738 3175 2569 2928 
Q 2400 2681 1866 2347 
Q 2416 1922 2594 1678 
Q 2831 1359 2831 1006 
Q 2831 559 2490 242 
Q 2150 -75 1597 -75 
Q 994 -75 656 303 
Q 388 606 388 966 
Q 388 1247 577 1523 
Q 766 1800 1228 2134 
z
M 1719 2469 
Q 2094 2806 2194 3001 
Q 2294 3197 2294 3444 
Q 2294 3772 2109 3958 
Q 1925 4144 1606 4144 
Q 1288 4144 1088 3959 
Q 888 3775 888 3528 
Q 888 3366 970 3203 
Q 1053 3041 1206 2894 
L 1719 2469 
z
M 1375 2016 
Q 1116 1797 991 1539 
Q 866 1281 866 981 
Q 866 578 1086 336 
Q 1306 94 1647 94 
Q 1984 94 2187 284 
Q 2391 475 2391 747 
Q 2391 972 2272 1150 
Q 2050 1481 1375 2016 
z
" transform="scale(0.015625)"/>
       </defs>
       <use xlink:href="#TimesNewRomanPSMT-38"/>
       <use xlink:href="#TimesNewRomanPSMT-30" x="50"/>
       <use xlink:href="#TimesNewRomanPSMT-30" x="100"/>
      </g>
     </g>
    </g>
    <g id="xtick_6">
     <g id="line2d_11">
      <path d="M 359.68245 284.1 
L 359.68245 7.2 
" clip-path="url(#p1d93cea93b)" style="fill: none; stroke: #cccccc; stroke-width: 0.8; stroke-linecap: round"/>
     </g>
     <g id="line2d_12"/>
     <g id="text_6">
      <!-- 1000 -->
      <g style="fill: #262626" transform="translate(344.68245 298.015625) scale(0.15 -0.15)">
       <defs>
        <path id="TimesNewRomanPSMT-31" d="M 750 3822 
L 1781 4325 
L 1884 4325 
L 1884 747 
Q 1884 391 1914 303 
Q 1944 216 2037 169 
Q 2131 122 2419 116 
L 2419 0 
L 825 0 
L 825 116 
Q 1125 122 1212 167 
Q 1300 213 1334 289 
Q 1369 366 1369 747 
L 1369 3034 
Q 1369 3497 1338 3628 
Q 1316 3728 1258 3775 
Q 1200 3822 1119 3822 
Q 1003 3822 797 3725 
L 750 3822 
z
" transform="scale(0.015625)"/>
       </defs>
       <use xlink:href="#TimesNewRomanPSMT-31"/>
       <use xlink:href="#TimesNewRomanPSMT-30" x="50"/>
       <use xlink:href="#TimesNewRomanPSMT-30" x="100"/>
       <use xlink:href="#TimesNewRomanPSMT-30" x="150"/>
      </g>
     </g>
    </g>
    <g id="xtick_7">
     <g id="line2d_13">
      <path d="M 417.353514 284.1 
L 417.353514 7.2 
" clip-path="url(#p1d93cea93b)" style="fill: none; stroke: #cccccc; stroke-width: 0.8; stroke-linecap: round"/>
     </g>
     <g id="line2d_14"/>
     <g id="text_7">
      <!-- 1200 -->
      <g style="fill: #262626" transform="translate(402.353514 298.015625) scale(0.15 -0.15)">
       <use xlink:href="#TimesNewRomanPSMT-31"/>
       <use xlink:href="#TimesNewRomanPSMT-32" x="50"/>
       <use xlink:href="#TimesNewRomanPSMT-30" x="100"/>
       <use xlink:href="#TimesNewRomanPSMT-30" x="150"/>
      </g>
     </g>
    </g>
    <g id="text_8">
     <!-- epochs -->
     <g style="fill: #262626" transform="translate(223.766484 315.639844) scale(0.15 -0.15)">
      <defs>
       <path id="TimesNewRomanPSMT-65" d="M 681 1784 
Q 678 1147 991 784 
Q 1303 422 1725 422 
Q 2006 422 2214 576 
Q 2422 731 2563 1106 
L 2659 1044 
Q 2594 616 2278 264 
Q 1963 -88 1488 -88 
Q 972 -88 605 314 
Q 238 716 238 1394 
Q 238 2128 614 2539 
Q 991 2950 1559 2950 
Q 2041 2950 2350 2633 
Q 2659 2316 2659 1784 
L 681 1784 
z
M 681 1966 
L 2006 1966 
Q 1991 2241 1941 2353 
Q 1863 2528 1708 2628 
Q 1553 2728 1384 2728 
Q 1125 2728 920 2526 
Q 716 2325 681 1966 
z
" transform="scale(0.015625)"/>
       <path id="TimesNewRomanPSMT-70" d="M -6 2578 
L 875 2934 
L 994 2934 
L 994 2266 
Q 1216 2644 1439 2795 
Q 1663 2947 1909 2947 
Q 2341 2947 2628 2609 
Q 2981 2197 2981 1534 
Q 2981 794 2556 309 
Q 2206 -88 1675 -88 
Q 1444 -88 1275 -22 
Q 1150 25 994 166 
L 994 -706 
Q 994 -1000 1030 -1079 
Q 1066 -1159 1155 -1206 
Q 1244 -1253 1478 -1253 
L 1478 -1369 
L -22 -1369 
L -22 -1253 
L 56 -1253 
Q 228 -1256 350 -1188 
Q 409 -1153 442 -1076 
Q 475 -1000 475 -688 
L 475 2019 
Q 475 2297 450 2372 
Q 425 2447 370 2484 
Q 316 2522 222 2522 
Q 147 2522 31 2478 
L -6 2578 
z
M 994 2081 
L 994 1013 
Q 994 666 1022 556 
Q 1066 375 1236 237 
Q 1406 100 1666 100 
Q 1978 100 2172 344 
Q 2425 663 2425 1241 
Q 2425 1897 2138 2250 
Q 1938 2494 1663 2494 
Q 1513 2494 1366 2419 
Q 1253 2363 994 2081 
z
" transform="scale(0.015625)"/>
       <path id="TimesNewRomanPSMT-6f" d="M 1600 2947 
Q 2250 2947 2644 2453 
Q 2978 2031 2978 1484 
Q 2978 1100 2793 706 
Q 2609 313 2286 112 
Q 1963 -88 1566 -88 
Q 919 -88 538 428 
Q 216 863 216 1403 
Q 216 1797 411 2186 
Q 606 2575 925 2761 
Q 1244 2947 1600 2947 
z
M 1503 2744 
Q 1338 2744 1170 2645 
Q 1003 2547 900 2300 
Q 797 2053 797 1666 
Q 797 1041 1045 587 
Q 1294 134 1700 134 
Q 2003 134 2200 384 
Q 2397 634 2397 1244 
Q 2397 2006 2069 2444 
Q 1847 2744 1503 2744 
z
" transform="scale(0.015625)"/>
       <path id="TimesNewRomanPSMT-63" d="M 2631 1088 
Q 2516 522 2178 217 
Q 1841 -88 1431 -88 
Q 944 -88 581 321 
Q 219 731 219 1428 
Q 219 2103 620 2525 
Q 1022 2947 1584 2947 
Q 2006 2947 2278 2723 
Q 2550 2500 2550 2259 
Q 2550 2141 2473 2067 
Q 2397 1994 2259 1994 
Q 2075 1994 1981 2113 
Q 1928 2178 1911 2362 
Q 1894 2547 1784 2644 
Q 1675 2738 1481 2738 
Q 1169 2738 978 2506 
Q 725 2200 725 1697 
Q 725 1184 976 792 
Q 1228 400 1656 400 
Q 1963 400 2206 609 
Q 2378 753 2541 1131 
L 2631 1088 
z
" transform="scale(0.015625)"/>
       <path id="TimesNewRomanPSMT-68" d="M 1041 4444 
L 1041 2350 
Q 1388 2731 1591 2839 
Q 1794 2947 1997 2947 
Q 2241 2947 2416 2812 
Q 2591 2678 2675 2391 
Q 2734 2191 2734 1659 
L 2734 647 
Q 2734 375 2778 275 
Q 2809 200 2884 156 
Q 2959 113 3159 113 
L 3159 0 
L 1753 0 
L 1753 113 
L 1819 113 
Q 2019 113 2097 173 
Q 2175 234 2206 353 
Q 2216 403 2216 647 
L 2216 1659 
Q 2216 2128 2167 2275 
Q 2119 2422 2012 2495 
Q 1906 2569 1756 2569 
Q 1603 2569 1437 2487 
Q 1272 2406 1041 2159 
L 1041 647 
Q 1041 353 1073 281 
Q 1106 209 1195 161 
Q 1284 113 1503 113 
L 1503 0 
L 84 0 
L 84 113 
Q 275 113 384 172 
Q 447 203 484 290 
Q 522 378 522 647 
L 522 3238 
Q 522 3728 498 3840 
Q 475 3953 426 3993 
Q 378 4034 297 4034 
Q 231 4034 84 3984 
L 41 4094 
L 897 4444 
L 1041 4444 
z
" transform="scale(0.015625)"/>
       <path id="TimesNewRomanPSMT-73" d="M 2050 2947 
L 2050 1972 
L 1947 1972 
Q 1828 2431 1642 2597 
Q 1456 2763 1169 2763 
Q 950 2763 815 2647 
Q 681 2531 681 2391 
Q 681 2216 781 2091 
Q 878 1963 1175 1819 
L 1631 1597 
Q 2266 1288 2266 781 
Q 2266 391 1970 151 
Q 1675 -88 1309 -88 
Q 1047 -88 709 6 
Q 606 38 541 38 
Q 469 38 428 -44 
L 325 -44 
L 325 978 
L 428 978 
Q 516 541 762 319 
Q 1009 97 1316 97 
Q 1531 97 1667 223 
Q 1803 350 1803 528 
Q 1803 744 1651 891 
Q 1500 1038 1047 1263 
Q 594 1488 453 1669 
Q 313 1847 313 2119 
Q 313 2472 555 2709 
Q 797 2947 1181 2947 
Q 1350 2947 1591 2875 
Q 1750 2828 1803 2828 
Q 1853 2828 1881 2850 
Q 1909 2872 1947 2947 
L 2050 2947 
z
" transform="scale(0.015625)"/>
      </defs>
      <use xlink:href="#TimesNewRomanPSMT-65"/>
      <use xlink:href="#TimesNewRomanPSMT-70" x="44.384766"/>
      <use xlink:href="#TimesNewRomanPSMT-6f" x="94.384766"/>
      <use xlink:href="#TimesNewRomanPSMT-63" x="144.384766"/>
      <use xlink:href="#TimesNewRomanPSMT-68" x="188.769531"/>
      <use xlink:href="#TimesNewRomanPSMT-73" x="238.769531"/>
     </g>
    </g>
   </g>
   <g id="matplotlib.axis_2">
    <g id="ytick_1">
     <g id="line2d_15">
      <path d="M 54.574219 247.083651 
L 434.614219 247.083651 
" clip-path="url(#p1d93cea93b)" style="fill: none; stroke: #cccccc; stroke-width: 0.8; stroke-linecap: round"/>
     </g>
     <g id="line2d_16"/>
     <g id="text_9">
      <!-- 0.01 -->
      <g style="fill: #262626" transform="translate(24.824219 252.291464) scale(0.15 -0.15)">
       <defs>
        <path id="TimesNewRomanPSMT-2e" d="M 800 606 
Q 947 606 1047 504 
Q 1147 403 1147 259 
Q 1147 116 1045 14 
Q 944 -88 800 -88 
Q 656 -88 554 14 
Q 453 116 453 259 
Q 453 406 554 506 
Q 656 606 800 606 
z
" transform="scale(0.015625)"/>
       </defs>
       <use xlink:href="#TimesNewRomanPSMT-30"/>
       <use xlink:href="#TimesNewRomanPSMT-2e" x="50"/>
       <use xlink:href="#TimesNewRomanPSMT-30" x="75"/>
       <use xlink:href="#TimesNewRomanPSMT-31" x="125"/>
      </g>
     </g>
    </g>
    <g id="ytick_2">
     <g id="line2d_17">
      <path d="M 54.574219 194.324428 
L 434.614219 194.324428 
" clip-path="url(#p1d93cea93b)" style="fill: none; stroke: #cccccc; stroke-width: 0.8; stroke-linecap: round"/>
     </g>
     <g id="line2d_18"/>
     <g id="text_10">
      <!-- 0.02 -->
      <g style="fill: #262626" transform="translate(24.824219 199.532241) scale(0.15 -0.15)">
       <use xlink:href="#TimesNewRomanPSMT-30"/>
       <use xlink:href="#TimesNewRomanPSMT-2e" x="50"/>
       <use xlink:href="#TimesNewRomanPSMT-30" x="75"/>
       <use xlink:href="#TimesNewRomanPSMT-32" x="125"/>
      </g>
     </g>
    </g>
    <g id="ytick_3">
     <g id="line2d_19">
      <path d="M 54.574219 141.565205 
L 434.614219 141.565205 
" clip-path="url(#p1d93cea93b)" style="fill: none; stroke: #cccccc; stroke-width: 0.8; stroke-linecap: round"/>
     </g>
     <g id="line2d_20"/>
     <g id="text_11">
      <!-- 0.03 -->
      <g style="fill: #262626" transform="translate(24.824219 146.773018) scale(0.15 -0.15)">
       <defs>
        <path id="TimesNewRomanPSMT-33" d="M 325 3431 
Q 506 3859 782 4092 
Q 1059 4325 1472 4325 
Q 1981 4325 2253 3994 
Q 2459 3747 2459 3466 
Q 2459 3003 1878 2509 
Q 2269 2356 2469 2072 
Q 2669 1788 2669 1403 
Q 2669 853 2319 450 
Q 1863 -75 997 -75 
Q 569 -75 414 31 
Q 259 138 259 259 
Q 259 350 332 419 
Q 406 488 509 488 
Q 588 488 669 463 
Q 722 447 909 348 
Q 1097 250 1169 231 
Q 1284 197 1416 197 
Q 1734 197 1970 444 
Q 2206 691 2206 1028 
Q 2206 1275 2097 1509 
Q 2016 1684 1919 1775 
Q 1784 1900 1550 2001 
Q 1316 2103 1072 2103 
L 972 2103 
L 972 2197 
Q 1219 2228 1467 2375 
Q 1716 2522 1828 2728 
Q 1941 2934 1941 3181 
Q 1941 3503 1739 3701 
Q 1538 3900 1238 3900 
Q 753 3900 428 3381 
L 325 3431 
z
" transform="scale(0.015625)"/>
       </defs>
       <use xlink:href="#TimesNewRomanPSMT-30"/>
       <use xlink:href="#TimesNewRomanPSMT-2e" x="50"/>
       <use xlink:href="#TimesNewRomanPSMT-30" x="75"/>
       <use xlink:href="#TimesNewRomanPSMT-33" x="125"/>
      </g>
     </g>
    </g>
    <g id="ytick_4">
     <g id="line2d_21">
      <path d="M 54.574219 88.805982 
L 434.614219 88.805982 
" clip-path="url(#p1d93cea93b)" style="fill: none; stroke: #cccccc; stroke-width: 0.8; stroke-linecap: round"/>
     </g>
     <g id="line2d_22"/>
     <g id="text_12">
      <!-- 0.04 -->
      <g style="fill: #262626" transform="translate(24.824219 94.013794) scale(0.15 -0.15)">
       <use xlink:href="#TimesNewRomanPSMT-30"/>
       <use xlink:href="#TimesNewRomanPSMT-2e" x="50"/>
       <use xlink:href="#TimesNewRomanPSMT-30" x="75"/>
       <use xlink:href="#TimesNewRomanPSMT-34" x="125"/>
      </g>
     </g>
    </g>
    <g id="ytick_5">
     <g id="line2d_23">
      <path d="M 54.574219 36.046759 
L 434.614219 36.046759 
" clip-path="url(#p1d93cea93b)" style="fill: none; stroke: #cccccc; stroke-width: 0.8; stroke-linecap: round"/>
     </g>
     <g id="line2d_24"/>
     <g id="text_13">
      <!-- 0.05 -->
      <g style="fill: #262626" transform="translate(24.824219 41.254571) scale(0.15 -0.15)">
       <defs>
        <path id="TimesNewRomanPSMT-35" d="M 2778 4238 
L 2534 3706 
L 1259 3706 
L 981 3138 
Q 1809 3016 2294 2522 
Q 2709 2097 2709 1522 
Q 2709 1188 2573 903 
Q 2438 619 2231 419 
Q 2025 219 1772 97 
Q 1413 -75 1034 -75 
Q 653 -75 479 54 
Q 306 184 306 341 
Q 306 428 378 495 
Q 450 563 559 563 
Q 641 563 702 538 
Q 763 513 909 409 
Q 1144 247 1384 247 
Q 1750 247 2026 523 
Q 2303 800 2303 1197 
Q 2303 1581 2056 1914 
Q 1809 2247 1375 2428 
Q 1034 2569 447 2591 
L 1259 4238 
L 2778 4238 
z
" transform="scale(0.015625)"/>
       </defs>
       <use xlink:href="#TimesNewRomanPSMT-30"/>
       <use xlink:href="#TimesNewRomanPSMT-2e" x="50"/>
       <use xlink:href="#TimesNewRomanPSMT-30" x="75"/>
       <use xlink:href="#TimesNewRomanPSMT-35" x="125"/>
      </g>
     </g>
    </g>
    <g id="text_14">
     <!-- TrainLoss -->
     <g style="fill: #262626" transform="translate(17.615625 175.797656) rotate(-90) scale(0.15 -0.15)">
      <defs>
       <path id="TimesNewRomanPSMT-54" d="M 3703 4238 
L 3750 3244 
L 3631 3244 
Q 3597 3506 3538 3619 
Q 3441 3800 3280 3886 
Q 3119 3972 2856 3972 
L 2259 3972 
L 2259 734 
Q 2259 344 2344 247 
Q 2463 116 2709 116 
L 2856 116 
L 2856 0 
L 1059 0 
L 1059 116 
L 1209 116 
Q 1478 116 1591 278 
Q 1659 378 1659 734 
L 1659 3972 
L 1150 3972 
Q 853 3972 728 3928 
Q 566 3869 450 3700 
Q 334 3531 313 3244 
L 194 3244 
L 244 4238 
L 3703 4238 
z
" transform="scale(0.015625)"/>
       <path id="TimesNewRomanPSMT-72" d="M 1038 2947 
L 1038 2303 
Q 1397 2947 1775 2947 
Q 1947 2947 2059 2842 
Q 2172 2738 2172 2600 
Q 2172 2478 2090 2393 
Q 2009 2309 1897 2309 
Q 1788 2309 1652 2417 
Q 1516 2525 1450 2525 
Q 1394 2525 1328 2463 
Q 1188 2334 1038 2041 
L 1038 669 
Q 1038 431 1097 309 
Q 1138 225 1241 169 
Q 1344 113 1538 113 
L 1538 0 
L 72 0 
L 72 113 
Q 291 113 397 181 
Q 475 231 506 341 
Q 522 394 522 644 
L 522 1753 
Q 522 2253 501 2348 
Q 481 2444 426 2487 
Q 372 2531 291 2531 
Q 194 2531 72 2484 
L 41 2597 
L 906 2947 
L 1038 2947 
z
" transform="scale(0.015625)"/>
       <path id="TimesNewRomanPSMT-61" d="M 1822 413 
Q 1381 72 1269 19 
Q 1100 -59 909 -59 
Q 613 -59 420 144 
Q 228 347 228 678 
Q 228 888 322 1041 
Q 450 1253 767 1440 
Q 1084 1628 1822 1897 
L 1822 2009 
Q 1822 2438 1686 2597 
Q 1550 2756 1291 2756 
Q 1094 2756 978 2650 
Q 859 2544 859 2406 
L 866 2225 
Q 866 2081 792 2003 
Q 719 1925 600 1925 
Q 484 1925 411 2006 
Q 338 2088 338 2228 
Q 338 2497 613 2722 
Q 888 2947 1384 2947 
Q 1766 2947 2009 2819 
Q 2194 2722 2281 2516 
Q 2338 2381 2338 1966 
L 2338 994 
Q 2338 584 2353 492 
Q 2369 400 2405 369 
Q 2441 338 2488 338 
Q 2538 338 2575 359 
Q 2641 400 2828 588 
L 2828 413 
Q 2478 -56 2159 -56 
Q 2006 -56 1915 50 
Q 1825 156 1822 413 
z
M 1822 616 
L 1822 1706 
Q 1350 1519 1213 1441 
Q 966 1303 859 1153 
Q 753 1003 753 825 
Q 753 600 887 451 
Q 1022 303 1197 303 
Q 1434 303 1822 616 
z
" transform="scale(0.015625)"/>
       <path id="TimesNewRomanPSMT-69" d="M 928 4444 
Q 1059 4444 1151 4351 
Q 1244 4259 1244 4128 
Q 1244 3997 1151 3903 
Q 1059 3809 928 3809 
Q 797 3809 703 3903 
Q 609 3997 609 4128 
Q 609 4259 701 4351 
Q 794 4444 928 4444 
z
M 1188 2947 
L 1188 647 
Q 1188 378 1227 289 
Q 1266 200 1342 156 
Q 1419 113 1622 113 
L 1622 0 
L 231 0 
L 231 113 
Q 441 113 512 153 
Q 584 194 626 287 
Q 669 381 669 647 
L 669 1750 
Q 669 2216 641 2353 
Q 619 2453 572 2492 
Q 525 2531 444 2531 
Q 356 2531 231 2484 
L 188 2597 
L 1050 2947 
L 1188 2947 
z
" transform="scale(0.015625)"/>
       <path id="TimesNewRomanPSMT-6e" d="M 1034 2341 
Q 1538 2947 1994 2947 
Q 2228 2947 2397 2830 
Q 2566 2713 2666 2444 
Q 2734 2256 2734 1869 
L 2734 647 
Q 2734 375 2778 278 
Q 2813 200 2889 156 
Q 2966 113 3172 113 
L 3172 0 
L 1756 0 
L 1756 113 
L 1816 113 
Q 2016 113 2095 173 
Q 2175 234 2206 353 
Q 2219 400 2219 647 
L 2219 1819 
Q 2219 2209 2117 2386 
Q 2016 2563 1775 2563 
Q 1403 2563 1034 2156 
L 1034 647 
Q 1034 356 1069 288 
Q 1113 197 1189 155 
Q 1266 113 1500 113 
L 1500 0 
L 84 0 
L 84 113 
L 147 113 
Q 366 113 442 223 
Q 519 334 519 647 
L 519 1709 
Q 519 2225 495 2337 
Q 472 2450 423 2490 
Q 375 2531 294 2531 
Q 206 2531 84 2484 
L 38 2597 
L 900 2947 
L 1034 2947 
L 1034 2341 
z
" transform="scale(0.015625)"/>
       <path id="TimesNewRomanPSMT-4c" d="M 3669 1172 
L 3772 1150 
L 3409 0 
L 128 0 
L 128 116 
L 288 116 
Q 556 116 672 291 
Q 738 391 738 753 
L 738 3488 
Q 738 3884 650 3984 
Q 528 4122 288 4122 
L 128 4122 
L 128 4238 
L 2047 4238 
L 2047 4122 
Q 1709 4125 1573 4059 
Q 1438 3994 1388 3894 
Q 1338 3794 1338 3416 
L 1338 753 
Q 1338 494 1388 397 
Q 1425 331 1503 300 
Q 1581 269 1991 269 
L 2300 269 
Q 2788 269 2984 341 
Q 3181 413 3343 595 
Q 3506 778 3669 1172 
z
" transform="scale(0.015625)"/>
      </defs>
      <use xlink:href="#TimesNewRomanPSMT-54"/>
      <use xlink:href="#TimesNewRomanPSMT-72" x="57.583984"/>
      <use xlink:href="#TimesNewRomanPSMT-61" x="90.884766"/>
      <use xlink:href="#TimesNewRomanPSMT-69" x="135.269531"/>
      <use xlink:href="#TimesNewRomanPSMT-6e" x="163.052734"/>
      <use xlink:href="#TimesNewRomanPSMT-4c" x="213.052734"/>
      <use xlink:href="#TimesNewRomanPSMT-6f" x="274.136719"/>
      <use xlink:href="#TimesNewRomanPSMT-73" x="324.136719"/>
      <use xlink:href="#TimesNewRomanPSMT-73" x="363.052734"/>
     </g>
    </g>
   </g>
   <g id="line2d_25">
    <path d="M 71.848764 19.786364 
L 72.123278 44.876468 
L 72.562732 60.075701 
L 72.755065 77.139975 
L 72.768906 67.666091 
L 73.221912 86.252259 
L 73.359169 98.233939 
L 73.633972 87.97561 
L 73.908486 105.020799 
L 74.581219 110.898116 
L 74.67753 110.677201 
L 75.006832 124.695975 
L 75.693406 121.733653 
L 76.572313 142.167044 
L 76.846827 141.642647 
L 76.970531 135.591468 
L 77.272728 140.685333 
L 77.354909 138.841726 
L 77.45122 140.005971 
L 78.000248 141.399306 
L 78.192581 155.214265 
L 78.275051 149.838399 
L 78.618194 153.240507 
L 78.906549 151.093555 
L 79.936554 162.033231 
L 79.963948 164.50955 
L 80.073811 155.031558 
L 80.156281 158.780702 
L 80.815173 152.888282 
L 80.856408 165.529325 
L 81.61161 166.315647 
L 82.613933 170.050443 
L 82.957365 163.847307 
L 83.135857 166.901179 
L 84.701049 176.035977 
L 84.907223 179.02493 
L 84.934617 184.825399 
L 84.989405 182.570928 
L 85.085715 174.337812 
L 85.415305 182.643472 
L 86.403787 178.519372 
L 86.486257 186.1547 
L 86.623514 188.03115 
L 86.788453 183.815087 
L 87.117755 184.843294 
L 87.145437 186.058188 
L 87.502421 187.835795 
L 87.543656 182.762823 
L 87.886799 193.205312 
L 88.010503 190.911945 
L 88.449668 187.073718 
L 88.806941 191.73046 
L 89.163925 193.063614 
L 89.562143 195.284162 
L 90.070225 199.242881 
L 90.385974 197.630949 
L 90.811587 199.579628 
L 90.894056 196.017072 
L 91.168571 202.727104 
L 91.209806 198.153028 
L 91.278434 201.472548 
L 91.594183 203.044433 
L 91.73144 205.251331 
L 92.967331 206.778788 
L 93.708981 199.719213 
L 94.1072 200.982683 
L 94.5876 207.212323 
L 94.83472 206.546169 
L 95.617605 204.87723 
L 95.837332 208.869774 
L 96.084452 210.445689 
L 96.551299 208.86262 
L 96.88089 209.617248 
L 98.006629 207.431744 
L 98.720885 210.217688 
L 98.940323 212.450186 
L 99.173891 210.701863 
L 99.311148 216.74747 
L 99.379777 208.748379 
L 99.983881 212.631871 
L 100.862788 215.571403 
L 102.826488 213.76117 
L 102.991139 221.434245 
L 103.128396 212.935363 
L 103.279494 223.72088 
L 103.430592 214.297969 
L 103.567849 221.238708 
L 103.691554 221.150136 
L 103.760182 222.093186 
L 103.911281 220.145048 
L 104.446757 222.91973 
L 104.515385 218.759362 
L 104.844975 220.985723 
L 104.954839 217.319313 
L 105.654965 225.205535 
L 105.833457 218.709784 
L 106.190441 220.365304 
L 106.575107 218.920553 
L 106.753599 226.229737 
L 107.028113 222.400432 
L 107.563589 222.438552 
L 107.797157 225.323176 
L 108.085512 225.692471 
L 108.167694 221.3802 
L 109.019207 215.696307 
L 109.390032 225.658012 
L 109.486054 219.787117 
L 109.733175 227.515136 
L 110.062765 223.458111 
L 111.037694 220.343296 
L 111.147557 224.338768 
L 112.506864 232.009553 
L 112.767826 224.833768 
L 112.918924 225.378272 
L 113.20728 227.192628 
L 113.591657 223.379273 
L 114.319466 227.415233 
L 114.59398 230.018475 
L 114.703844 224.790194 
L 115.266713 229.441203 
L 115.294395 231.972623 
L 116.420134 229.16304 
L 116.626309 227.287435 
L 116.914664 230.65531 
L 117.312883 232.189872 
L 117.463981 231.409732 
L 117.546162 228.670241 
L 118.26013 227.524614 
L 118.425069 225.648769 
L 118.782053 227.95926 
L 119.00178 228.28993 
L 119.152878 233.027648 
L 119.317529 231.798569 
L 120.924245 226.3572 
L 122.43465 227.876515 
L 122.695323 231.144694 
L 123.01136 230.401376 
L 123.066148 230.779693 
L 123.615465 228.069944 
L 123.629018 226.586974 
L 124.246963 232.538638 
L 124.617788 237.961778 
L 124.768886 224.148087 
L 124.837515 231.774311 
L 125.469013 230.529164 
L 125.990936 233.567774 
L 126.306685 234.743079 
L 126.897237 232.381325 
L 127.034494 236.711521 
L 127.116963 236.484257 
L 127.171751 233.395283 
L 127.611204 239.304675 
L 129.149003 232.867854 
L 129.931888 234.594841 
L 130.151615 235.589435 
L 131.222567 235.275319 
L 131.758042 237.036623 
L 132.320912 236.394668 
L 132.623108 235.639416 
L 132.842835 236.083279 
L 132.980092 242.819972 
L 133.831317 235.898715 
L 135.067208 237.727847 
L 135.410639 235.47456 
L 135.781176 237.283059 
L 135.877486 239.836959 
L 136.261864 242.732201 
L 136.71487 240.287171 
L 136.838575 243.033276 
L 136.948438 237.253956 
L 137.264187 239.716891 
L 137.648853 238.310057 
L 137.662406 242.39566 
L 137.827345 237.435626 
L 138.239117 241.953004 
L 138.67857 235.348349 
L 139.461166 236.558207 
L 140.051718 237.138069 
L 140.14774 239.471776 
L 141.287609 241.681829 
L 141.575964 237.396126 
L 141.768009 239.593343 
L 141.795403 239.347301 
L 141.809244 242.233939 
L 142.372113 239.076852 
L 143.182392 242.95799 
L 144.967311 240.366825 
L 145.324583 237.812945 
L 145.860059 243.060802 
L 145.928688 240.905433 
L 146.368141 240.73217 
L 147.823471 242.716959 
L 148.55128 247.266566 
L 149.279088 241.30303 
L 149.306482 244.918103 
L 149.622231 240.579033 
L 149.883193 243.337491 
L 149.993056 245.541111 
L 150.336487 238.681986 
L 150.981827 243.170576 
L 151.09169 239.290544 
L 151.503461 244.485948 
L 152.066619 243.25623 
L 152.162642 240.233982 
L 152.711958 242.771062 
L 153.769069 240.106337 
L 154.1125 244.116766 
L 154.194682 242.353914 
L 154.263598 243.076417 
L 155.348103 245.36236 
L 155.403179 241.342148 
L 155.952496 247.352475 
L 156.048518 246.709026 
L 156.432896 245.164789 
L 157.078235 243.694581 
L 157.174545 244.997064 
L 157.325644 244.52963 
L 157.710021 243.714608 
L 157.723862 244.854855 
L 158.135634 246.051524 
L 158.176868 248.050882 
L 159.083169 241.863115 
L 159.961788 246.603551 
L 160.415082 245.740367 
L 160.538499 248.830024 
L 160.758225 245.777022 
L 161.513428 243.229382 
L 162.227684 244.68402 
L 162.364941 243.97042 
L 162.873023 247.684255 
L 162.941652 245.853684 
L 163.01028 246.933788 
L 163.394658 244.046167 
L 163.696854 244.070205 
L 163.738089 248.572346 
L 164.506844 246.612872 
L 164.603155 245.553611 
L 165.440539 244.633341 
L 165.742735 249.936918 
L 166.086167 246.563392 
L 167.033414 244.411802 
L 167.225747 244.783918 
L 167.980949 248.235284 
L 168.173282 246.953531 
L 168.722311 247.101725 
L 168.983272 245.828988 
L 169.312863 250.419034 
L 169.367938 245.968259 
L 169.45012 247.275626 
L 169.615059 245.303308 
L 170.054224 248.697697 
L 170.1093 246.392458 
L 170.301633 246.587346 
L 170.534912 250.083691 
L 170.562306 245.754945 
L 171.235328 250.972151 
L 171.262721 246.161166 
L 171.358744 246.416486 
L 172.072711 245.649279 
L 173.391072 250.075977 
L 173.445859 248.655862 
L 173.77545 246.458571 
L 173.899154 244.337071 
L 174.10504 246.642486 
L 174.269979 247.105179 
L 174.667909 248.582837 
L 175.368324 250.860352 
L 175.57421 249.090975 
L 175.670521 251.913044 
L 175.739149 248.867338 
L 176.302019 250.109807 
L 176.494352 250.028301 
L 177.469281 250.544345 
L 178.11462 247.330172 
L 178.402976 248.081012 
L 178.704884 250.230971 
L 178.965845 250.176936 
L 179.487768 248.629683 
L 179.693654 253.008031 
L 179.707495 249.455485 
L 180.531326 250.196237 
L 180.723371 250.012552 
L 180.860917 252.192519 
L 181.561043 250.677356 
L 182.014338 250.542119 
L 182.11036 253.269365 
L 182.412556 249.298058 
L 182.43995 247.305363 
L 182.714465 249.558758 
L 183.00282 250.620967 
L 183.469667 249.454423 
L 184.07406 251.893679 
L 184.334733 249.527989 
L 185.048701 250.562358 
L 185.254875 251.239696 
L 185.77651 249.587006 
L 186.229804 251.549561 
L 186.257198 250.388628 
L 186.51816 253.430379 
L 186.586788 249.754147 
L 186.669258 251.102538 
L 186.943772 254.338925 
L 187.081029 252.316376 
L 187.149658 247.702194 
L 187.232127 250.503248 
L 187.410619 247.067 
L 187.547876 253.892747 
L 187.877467 255.124819 
L 187.98733 249.266135 
L 188.165822 253.614555 
L 188.989653 253.21481 
L 189.003494 251.296526 
L 189.250615 253.322565 
L 189.374031 250.787543 
L 190.266779 253.012626 
L 190.912118 248.684803 
L 191.131845 253.345236 
L 192.065539 249.517853 
L 192.710878 254.748556 
L 193.067862 254.223304 
L 193.109097 247.844713 
L 193.507316 251.048557 
L 193.562103 250.653328 
L 194.454851 252.053106 
L 194.619502 250.512205 
L 194.976486 256.696798 
L 195.484568 249.267746 
L 195.567038 254.877066 
L 195.635666 252.760824 
L 195.772924 251.849452 
L 197.159624 253.441031 
L 197.173465 254.171067 
L 197.599078 251.595562 
L 198.093607 253.381366 
L 198.972226 252.842483 
L 199.42552 253.537318 
L 199.686194 251.578728 
L 199.851133 252.180485 
L 200.139488 253.789975 
L 200.565101 255.360799 
L 200.839615 253.082123 
L 202.130582 253.483254 
L 202.185369 257.750133 
L 202.363861 254.567397 
L 202.734686 254.926841 
L 202.830708 255.623179 
L 202.871943 257.125031 
L 202.913178 252.48616 
L 203.050435 257.40599 
L 203.311397 253.85134 
L 203.393866 254.886225 
L 203.476048 253.510038 
L 203.640987 255.697428 
L 203.819479 254.853962 
L 203.90166 254.949959 
L 203.942895 253.004631 
L 204.011523 254.879651 
L 204.093993 254.358226 
L 204.684545 256.094402 
L 205.906595 253.552968 
L 206.085087 252.422052 
L 207.142486 254.244064 
L 207.279743 256.747472 
L 207.650279 253.503532 
L 208.350694 257.926354 
L 208.707678 254.259404 
L 208.803701 255.041052 
L 208.88617 256.794681 
L 209.737683 253.609454 
L 210.300553 255.830818 
L 210.383023 254.845423 
L 210.396575 252.978462 
L 210.479045 253.939318 
L 211.069597 254.777414 
L 211.302876 255.829506 
L 212.621237 254.599901 
L 212.662183 256.046357 
L 212.703418 255.053768 
L 213.898074 255.845239 
L 214.035331 253.911183 
L 214.20027 257.787746 
L 214.667118 255.448305 
L 215.120124 254.658657 
L 215.216434 255.622752 
L 216.067659 258.585885 
L 217.770398 256.63012 
L 218.223404 256.659676 
L 218.237245 257.205128 
L 218.305873 255.738314 
L 218.662857 258.084768 
L 218.800114 257.522516 
L 218.813955 260.289447 
L 219.637787 255.505971 
L 219.720256 256.528724 
L 220.255732 258.72363 
L 221.010935 256.456528 
L 221.820925 256.103011 
L 222.741067 257.57377 
L 223.33133 257.624615 
L 223.715996 259.763966 
L 223.867094 257.03302 
L 224.07298 258.579065 
L 224.622297 258.684734 
L 224.64969 258.222638 
L 225.157773 258.357781 
L 225.473522 257.691804 
L 225.555991 258.352617 
L 225.748036 256.395708 
L 226.311194 259.090964 
L 226.791594 256.829622 
L 227.395987 256.808611 
L 227.478168 254.12714 
L 227.711736 255.502654 
L 228.027485 256.311691 
L 228.301999 257.360608 
L 228.686665 258.144915 
L 228.714059 261.843427 
L 229.222141 255.737356 
L 229.551731 257.827645 
L 229.675147 256.83057 
L 230.540213 257.59424 
L 231.034742 259.809942 
L 231.817339 257.03386 
L 232.545147 259.125308 
L 232.696246 256.741551 
L 233.38282 257.671904 
L 233.506236 258.843067 
L 233.588705 257.107146 
L 233.794591 257.235052 
L 234.11034 258.115772 
L 234.879384 260.928206 
L 235.030482 257.372588 
L 235.373625 257.38584 
L 235.964177 260.057069 
L 236.005411 259.579773 
L 236.252532 261.322943 
L 236.513493 258.533452 
L 236.678144 259.210227 
L 236.73322 257.95185 
L 237.117598 260.77839 
L 237.653074 260.56989 
L 237.735543 258.350607 
L 237.817725 258.804915 
L 238.820336 259.987151 
L 239.259501 259.118564 
L 239.905129 259.414008 
L 240.467998 256.553066 
L 240.673884 258.735892 
L 240.97608 257.86001 
L 241.223201 262.108292 
L 242.513879 259.43821 
L 243.282923 256.581014 
L 244.134148 260.148466 
L 244.31264 257.54989 
L 244.999214 258.733926 
L 245.05429 260.185082 
L 245.122918 258.552148 
L 245.342645 258.603908 
L 245.631 261.124314 
L 245.685788 259.918216 
L 245.878121 258.352047 
L 245.891674 260.764261 
L 245.946749 256.755186 
L 246.042772 257.74009 
L 248.267433 259.805279 
L 248.596735 256.850111 
L 248.720439 261.669489 
L 248.816462 259.067003 
L 249.201128 262.243057 
L 249.434407 260.375651 
L 249.558111 261.517544 
L 249.983724 257.958145 
L 250.176057 260.063287 
L 251.98837 260.605051 
L 252.029605 260.270827 
L 252.139468 261.476957 
L 252.688785 262.336302 
L 252.935906 263.601778 
L 253.045769 263.323881 
L 253.29289 262.277614 
L 253.938229 261.475562 
L 254.226584 260.55038 
L 255.805618 260.488248 
L 256.107814 264.367671 
L 257.041509 262.906403 
L 257.38494 260.357222 
L 257.810552 261.004791 
L 257.961651 262.164481 
L 258.716853 261.256477 
L 260.213417 262.492509 
L 260.254652 263.392875 
L 260.433144 263.001626 
L 260.515614 261.268457 
L 260.666712 261.999593 
L 260.858756 261.128149 
L 260.941226 259.294569 
L 261.023696 263.033122 
L 261.394232 261.298095 
L 261.54533 261.46585 
L 261.696429 264.552572 
L 262.177117 261.257187 
L 262.753828 264.108821 
L 263.248069 259.393948 
L 263.797386 263.539911 
L 263.907249 262.794272 
L 263.975877 262.829805 
L 264.0719 260.779801 
L 264.236839 261.826561 
L 264.264233 261.545062 
L 264.442725 261.689915 
L 264.593823 261.642582 
L 264.607376 260.92055 
L 264.868337 263.426941 
L 265.101905 260.988557 
L 266.296273 260.894577 
L 266.474765 262.468961 
L 266.639704 260.623124 
L 267.037923 260.622708 
L 267.971617 264.993321 
L 268.699426 263.002007 
L 269.221061 262.647494 
L 269.344765 261.525784 
L 269.550651 263.235724 
L 270.360929 262.222535 
L 270.649285 261.027861 
L 270.978586 260.16078 
L 271.459275 264.287376 
L 271.527903 261.69143 
L 271.610373 262.654078 
L 272.022433 263.433535 
L 272.214477 263.075327 
L 272.612696 263.620111 
L 273.738724 264.428978 
L 273.752565 262.309869 
L 273.807352 264.665525 
L 274.19173 262.776537 
L 274.493926 262.295386 
L 274.548714 262.36198 
L 274.699812 262.465829 
L 274.741047 263.620774 
L 275.26297 263.002412 
L 275.386386 262.492544 
L 275.578719 260.574049 
L 275.606113 264.153535 
L 276.883238 263.744295 
L 277.212828 264.797706 
L 277.432267 263.605719 
L 277.816933 263.072121 
L 277.940349 263.362337 
L 278.338568 262.396058 
L 278.475825 264.541003 
L 278.819256 262.028935 
L 278.901726 264.037014 
L 279.190081 265.428824 
L 279.203634 262.283805 
L 279.574459 265.08971 
L 279.711716 263.421953 
L 280.109934 265.707515 
L 281.222121 260.998237 
L 281.538158 261.813093 
L 282.458012 265.363301 
L 283.130745 263.788067 
L 283.693903 265.223335 
L 283.845001 263.317857 
L 284.023493 263.462709 
L 284.833483 263.740469 
L 284.860877 264.403683 
L 285.492663 263.483354 
L 286.302653 264.270166 
L 287.016909 264.790672 
L 287.154166 264.634599 
L 287.469916 263.443615 
L 287.621014 264.827991 
L 288.019232 265.960997 
L 288.293747 263.994322 
L 288.637178 264.187888 
L 289.117578 263.135405 
L 289.817993 262.943523 
L 289.886622 265.240243 
L 289.969091 264.026106 
L 290.202371 265.390061 
L 291.301004 265.893551 
L 291.959896 263.848588 
L 292.001131 264.147034 
L 292.220858 266.984372 
L 292.234699 264.892597 
L 292.262093 267.24203 
L 292.440585 267.499873 
L 293.223181 265.532906 
L 293.264416 265.565807 
L 294.184558 266.234367 
L 294.884684 264.450844 
L 295.021941 265.167301 
L 295.626334 265.858542 
L 296.614816 263.754896 
L 296.669892 267.174024 
L 297.782079 263.188998 
L 298.029199 267.83797 
L 298.468653 264.42263 
L 298.660697 265.618056 
L 298.701932 265.337173 
L 299.580839 263.946732 
L 299.635627 264.583454 
L 300.336042 266.627265 
L 300.528375 267.685786 
L 301.050009 266.030117 
L 301.091244 267.326719 
L 301.95631 267.445925 
L 302.052332 264.981707 
L 302.436998 267.683366 
L 302.601649 266.889871 
L 302.93124 267.66567 
L 303.480556 265.510527 
L 303.741518 265.785828 
L 303.92001 266.320001 
L 304.057267 266.093352 
L 304.16713 267.3754 
L 306.116989 266.028036 
L 306.226852 264.008449 
L 306.240405 265.936267 
L 307.380274 266.397729 
L 307.476296 267.212438 
L 308.039166 265.146543 
L 308.986701 268.229813 
L 309.206428 267.305457 
L 309.220269 266.130184 
L 309.522177 266.864286 
L 309.755745 266.488173 
L 309.879161 264.430565 
L 310.346008 265.366335 
L 310.758068 264.503834 
L 311.485877 266.809537 
L 312.15861 267.952889 
L 312.295867 264.963768 
L 312.392178 265.14913 
L 312.40573 266.404107 
L 312.955047 268.06953 
L 312.996282 267.014264 
L 313.14738 266.089323 
L 313.38066 265.986467 
L 313.545599 266.155519 
L 313.874901 264.919597 
L 314.108468 267.948523 
L 314.918459 265.714011 
L 315.206814 265.930953 
L 315.248049 265.011948 
L 315.701343 268.103932 
L 315.811207 267.605972 
L 315.865994 267.660896 
L 316.882158 265.632531 
L 317.829694 266.486264 
L 318.227913 266.630422 
L 318.598449 266.432129 
L 318.680919 269.308547 
L 318.776941 265.506171 
L 319.065296 265.529282 
L 319.601061 267.028729 
L 319.765711 265.735724 
L 319.930362 267.031862 
L 320.136536 267.314906 
L 320.466127 266.175156 
L 320.768035 267.877116 
L 321.042837 266.254432 
L 321.207488 266.991777 
L 322.498167 268.41082 
L 322.566795 265.996918 
L 322.580636 266.118596 
L 322.745287 265.920979 
L 322.896385 267.129836 
L 323.390626 266.069939 
L 324.461866 268.154422 
L 324.544048 266.438745 
L 324.585282 266.661751 
L 324.860085 266.790052 
L 324.956107 265.51906 
L 325.38172 268.169256 
L 326.013506 267.296016 
L 326.37049 267.817492 
L 326.452671 267.666785 
L 326.466512 269.434669 
L 326.823496 268.059091 
L 326.947201 269.515812 
L 327.290344 267.433776 
L 327.647327 266.513265 
L 328.265273 268.280554 
L 328.608704 266.383629 
L 329.130339 268.868432 
L 329.267596 266.48353 
L 329.336225 267.592379 
L 330.640744 266.908312 
L 330.668138 267.32192 
L 331.58828 266.512958 
L 332.013892 268.611479 
L 332.151149 267.329443 
L 332.837723 266.150423 
L 333.291018 268.187136 
L 333.345805 267.316754 
L 333.908963 266.826916 
L 334.156084 268.323145 
L 334.60909 268.790267 
L 334.650325 269.806861 
L 335.26827 266.540019 
L 336.2432 266.749072 
L 336.847304 269.381231 
L 337.396621 267.821077 
L 337.753605 268.311954 
L 338.247846 267.142791 
L 338.27524 268.42802 
L 338.330315 268.244537 
L 339.318797 268.086251 
L 339.401267 268.533404 
L 339.5936 265.777504 
L 340.280174 266.730339 
L 340.431272 267.66155 
L 341.035377 266.487689 
L 341.241262 269.229544 
L 341.255103 268.505628 
L 341.309891 267.744619 
L 341.488383 267.287368 
L 341.694557 267.384962 
L 341.776738 266.868603 
L 342.531941 267.409677 
L 342.710433 266.458495 
L 343.273591 267.864673 
L 345.772478 268.128699 
L 346.060833 267.6668 
L 346.472893 269.443958 
L 347.035763 267.123348 
L 347.296724 269.437713 
L 348.148237 267.83068 
L 348.271653 268.063911 
L 348.546168 267.378338 
L 349.164113 269.088892 
L 349.397681 266.674076 
L 349.480151 268.671184 
L 349.987944 268.033697 
L 350.37261 266.771144 
L 350.496026 267.797958 
L 350.619731 266.594909 
L 350.647125 267.770172 
L 351.786993 268.378076 
L 351.937803 268.011687 
L 352.308628 269.062236 
L 352.665612 268.630885 
L 353.009043 268.892732 
L 353.050278 268.055661 
L 353.283557 270.162916 
L 354.505607 269.64527 
L 354.560683 267.265262 
L 354.793962 269.850719 
L 354.945061 266.99246 
L 355.123553 270.476054 
L 355.233416 267.946 
L 355.727657 268.287976 
L 355.947384 269.377676 
L 356.936154 270.007824 
L 357.004783 267.708094 
L 357.306691 267.912445 
L 357.608887 270.50571 
L 357.691357 268.691858 
L 358.048341 266.594683 
L 358.432718 268.057919 
L 358.583816 270.045693 
L 358.899566 267.955844 
L 359.064505 269.227313 
L 359.50367 269.203706 
L 360.588463 267.908175 
L 360.986681 268.576762 
L 361.13778 269.055903 
L 361.453529 267.609891 
L 361.618468 268.00385 
L 361.769566 268.873272 
L 361.948058 269.081323 
L 363.224895 268.645955 
L 363.375994 270.14153 
L 363.431069 268.117474 
L 363.444622 269.883977 
L 363.540644 269.016739 
L 363.732977 270.229788 
L 363.760371 267.610031 
L 363.829 269.26515 
L 364.460786 268.561564 
L 364.543256 269.633787 
L 365.119966 270.096406 
L 365.312011 268.626809 
L 366.383251 268.664646 
L 366.479273 267.859137 
L 366.836257 269.83603 
L 369.829674 270.547783 
L 370.159264 267.443212 
L 370.516248 267.983766 
L 370.530089 269.151872 
L 370.831997 268.982103 
L 370.914467 270.782755 
L 370.969254 267.840301 
L 371.188981 267.723309 
L 371.505018 268.74502 
L 372.109123 269.31476 
L 372.850484 268.567055 
L 372.974189 269.882031 
L 373.180074 270.430689 
L 374.155004 270.863977 
L 374.182398 268.723641 
L 375.34966 267.698249 
L 375.638015 267.024226 
L 376.022393 269.213737 
L 376.516634 268.905807 
L 376.750202 270.534595 
L 377.258284 270.013649 
L 377.821153 267.451865 
L 378.013486 268.047183 
L 378.604038 268.974359 
L 379.015809 269.848331 
L 379.318006 270.019729 
L 379.3454 270.372056 
L 379.67499 267.912192 
L 379.688542 269.178806 
L 381.158001 269.903739 
L 381.501144 268.804845 
L 381.611007 270.690284 
L 381.981832 266.800921 
L 382.544702 268.853414 
L 382.599778 270.286171 
L 383.423609 267.404309 
L 383.670729 270.710398 
L 383.986478 268.160554 
L 384.151418 270.441625 
L 384.467167 269.892748 
L 385.194976 270.435768 
L 385.744004 268.964014 
L 386.293321 268.994787 
L 386.334556 269.749057 
L 386.78785 269.160385 
L 387.089758 270.210924 
L 387.227016 268.590078 
L 387.666469 270.579082 
L 388.270573 269.097164 
L 388.284414 270.543488 
L 389.56154 268.795824 
L 390.083175 269.759531 
L 390.522628 270.023886 
L 390.78359 269.970802 
L 390.810984 270.622027 
L 391.305225 268.975261 
L 391.552345 269.286259 
L 391.59358 268.595551 
L 391.92317 270.319262 
L 392.554957 268.272146 
L 393.200296 268.302748 
L 393.625908 268.772222 
L 393.914264 268.7159 
L 394.628232 270.815632 
L 395.767812 268.34456 
L 396.742741 268.377388 
L 396.935074 271.076263 
L 396.976309 267.663265 
L 397.47055 270.264539 
L 398.088495 271.513636 
L 399.447802 267.819711 
L 400.285475 271.229452 
L 400.615065 270.134914 
L 400.697534 267.622949 
L 400.98589 269.58158 
L 401.315191 269.349273 
L 401.617388 269.568395 
L 402.399984 268.963191 
L 402.866831 268.945295 
L 402.921907 270.915879 
L 403.155187 269.487252 
L 403.182869 269.994648 
L 404.748062 269.367028 
L 405.022864 268.974885 
L 405.160121 268.355154 
L 405.503264 267.896857 
L 406.093816 270.575176 
L 406.286149 269.120312 
L 406.478193 268.69283 
L 406.835177 269.03757 
L 406.958882 270.486562 
L 407.604221 271.118306 
L 407.659008 269.744827 
L 407.796554 270.233768 
L 407.947364 270.050339 
L 408.00244 268.515465 
L 408.043674 268.687914 
L 408.153538 269.158933 
L 408.441893 269.57829 
L 408.537915 269.943923 
L 408.826271 269.623785 
L 409.306959 269.663701 
L 409.581473 270.733239 
L 409.608867 268.575828 
L 409.842435 271.111693 
L 410.034768 268.219252 
L 410.885993 268.667064 
L 410.913387 269.176855 
L 411.10572 266.978004 
L 411.833528 269.87695 
L 412.410239 269.684581 
L 412.547496 267.90048 
L 412.725988 270.732128 
L 413.275305 270.162047 
L 413.577213 268.155798 
L 413.906803 269.30821 
L 415.623382 269.712866 
L 416.254881 271.292176 
L 416.350903 268.309406 
L 416.57063 268.559444 
L 417.339673 270.626059 
L 417.339673 270.626059 
" clip-path="url(#p1d93cea93b)" style="fill: none; stroke: #0000ff; stroke-width: 2; stroke-linecap: round"/>
   </g>
   <g id="patch_3">
    <path d="M 54.574219 284.1 
L 54.574219 7.2 
" style="fill: none; stroke: #cccccc; stroke-linejoin: miter; stroke-linecap: square"/>
   </g>
   <g id="patch_4">
    <path d="M 434.614219 284.1 
L 434.614219 7.2 
" style="fill: none; stroke: #cccccc; stroke-linejoin: miter; stroke-linecap: square"/>
   </g>
   <g id="patch_5">
    <path d="M 54.574219 284.1 
L 434.614219 284.1 
" style="fill: none; stroke: #cccccc; stroke-linejoin: miter; stroke-linecap: square"/>
   </g>
   <g id="patch_6">
    <path d="M 54.574219 7.2 
L 434.614219 7.2 
" style="fill: none; stroke: #cccccc; stroke-linejoin: miter; stroke-linecap: square"/>
   </g>
  </g>
 </g>
 <defs>
  <clipPath id="p1d93cea93b">
   <rect x="54.574219" y="7.2" width="380.04" height="276.9"/>
  </clipPath>
 </defs>
</svg>
